<?xml version="1.0" encoding="UTF-8" standalone="no"?><svg xmlns="http://www.w3.org/2000/svg" xmlns:xlink="http://www.w3.org/1999/xlink" clip-rule="evenodd" stroke-miterlimit="4.00" viewBox="0 0 1024 768"><desc>SVG generated by Keynote</desc><defs><linearGradient id="gradSh1.70" x1="0.0" y1="0.0" x2="100.0" y2="0.0" gradientUnits="userSpaceOnUse" gradientTransform="matrix(0.00, -1.02, -3.35, 0.00, 762.0, 667.5)"><stop offset="0.00000" stop-color="#A6AAA8"></stop><stop offset="0.00806" stop-color="#A6A9A8"></stop><stop offset="0.46628" stop-color="#7F8486"></stop><stop offset="0.46994" stop-color="#7F8386"></stop><stop offset="0.55865" stop-color="#787C7F"></stop><stop offset="0.56232" stop-color="#777C7F"></stop><stop offset="1.00000" stop-color="#53585F"></stop></linearGradient></defs><g transform="matrix(1.00, 0.00, -0.00, -1.00, 0.0, 768.0)"><g><clipPath id="clip-414"><path d="M 0.0 768.0 L 1024.0 768.0 L 1024.0 0.0 L 0.0 0.0 Z M 0.0 768.0 "></path></clipPath><g clip-path="url(#clip-414)"><image xlink:href="../../30B7321D-9918-41AC-AA51-AB2EAA3DCF6E/assets/C58B69C55A3E82F4B831EE06AE03AE34.jpeg" width="1024.00" height="768.00" transform="matrix(1.00, 0.00, -0.00, -1.00, 0.0, 768.0)"></image></g></g><image xlink:href="0F9F207D6E5FCD8D0CF2F6B024C4AF50.png" width="494.00" height="266.00" transform="matrix(1.00, 0.00, -0.00, -1.00, 49.0, 664.0)"></image><text xml:space="preserve" font-family="Helvetica-BoldOblique" font-style="italic" font-weight="bold" font-size="38.0" fill="#FEFFFF" transform="matrix(1.00, 0.00, -0.00, -1.00, 94.0, 316.0)">O</text><text xml:space="preserve" font-family="Helvetica-BoldOblique" font-style="italic" font-weight="bold" font-size="38.0" fill="#FEFFFF" transform="matrix(1.00, 0.00, -0.00, -1.00, 123.6, 316.0)">p</text><text xml:space="preserve" font-family="Helvetica-BoldOblique" font-style="italic" font-weight="bold" font-size="38.0" fill="#FEFFFF" transform="matrix(1.00, 0.00, -0.00, -1.00, 146.8, 316.0)">e</text><text xml:space="preserve" font-family="Helvetica-BoldOblique" font-style="italic" font-weight="bold" font-size="38.0" fill="#FEFFFF" transform="matrix(1.00, 0.00, -0.00, -1.00, 167.9, 316.0)">r</text><text xml:space="preserve" font-family="Helvetica-BoldOblique" font-style="italic" font-weight="bold" font-size="38.0" fill="#FEFFFF" transform="matrix(1.00, 0.00, -0.00, -1.00, 182.7, 316.0)">a</text><text xml:space="preserve" font-family="Helvetica-BoldOblique" font-style="italic" font-weight="bold" font-size="38.0" fill="#FEFFFF" transform="matrix(1.00, 0.00, -0.00, -1.00, 203.8, 316.0)">t</text><text xml:space="preserve" font-family="Helvetica-BoldOblique" font-style="italic" font-weight="bold" font-size="38.0" fill="#FEFFFF" transform="matrix(1.00, 0.00, -0.00, -1.00, 216.5, 316.0)">i</text><text xml:space="preserve" font-family="Helvetica-BoldOblique" font-style="italic" font-weight="bold" font-size="38.0" fill="#FEFFFF" transform="matrix(1.00, 0.00, -0.00, -1.00, 227.0, 316.0)">o</text><text xml:space="preserve" font-family="Helvetica-BoldOblique" font-style="italic" font-weight="bold" font-size="38.0" fill="#FEFFFF" transform="matrix(1.00, 0.00, -0.00, -1.00, 250.2, 316.0)">n</text><text xml:space="preserve" font-family="Helvetica-BoldOblique" font-style="italic" font-weight="bold" font-size="38.0" fill="#FEFFFF" transform="matrix(1.00, 0.00, -0.00, -1.00, 273.4, 316.0)"> </text><text xml:space="preserve" font-family="Helvetica-BoldOblique" font-style="italic" font-weight="bold" font-size="38.0" fill="#FEFFFF" transform="matrix(1.00, 0.00, -0.00, -1.00, 284.0, 316.0)">S</text><text xml:space="preserve" font-family="Helvetica-BoldOblique" font-style="italic" font-weight="bold" font-size="38.0" fill="#FEFFFF" transform="matrix(1.00, 0.00, -0.00, -1.00, 309.3, 316.0)">e</text><text xml:space="preserve" font-family="Helvetica-BoldOblique" font-style="italic" font-weight="bold" font-size="38.0" fill="#FEFFFF" transform="matrix(1.00, 0.00, -0.00, -1.00, 330.5, 316.0)">m</text><text xml:space="preserve" font-family="Helvetica-BoldOblique" font-style="italic" font-weight="bold" font-size="38.0" fill="#FEFFFF" transform="matrix(1.00, 0.00, -0.00, -1.00, 364.3, 316.0)">i</text><text xml:space="preserve" font-family="Helvetica-BoldOblique" font-style="italic" font-weight="bold" font-size="38.0" fill="#FEFFFF" transform="matrix(1.00, 0.00, -0.00, -1.00, 374.8, 316.0)">-</text><text xml:space="preserve" font-family="Helvetica-BoldOblique" font-style="italic" font-weight="bold" font-size="38.0" fill="#FEFFFF" transform="matrix(1.00, 0.00, -0.00, -1.00, 387.5, 316.0)">C</text><text xml:space="preserve" font-family="Helvetica-BoldOblique" font-style="italic" font-weight="bold" font-size="38.0" fill="#FEFFFF" transform="matrix(1.00, 0.00, -0.00, -1.00, 414.9, 316.0)">o</text><text xml:space="preserve" font-family="Helvetica-BoldOblique" font-style="italic" font-weight="bold" font-size="38.0" fill="#FEFFFF" transform="matrix(1.00, 0.00, -0.00, -1.00, 438.1, 316.0)">l</text><text xml:space="preserve" font-family="Helvetica-BoldOblique" font-style="italic" font-weight="bold" font-size="38.0" fill="#FEFFFF" transform="matrix(1.00, 0.00, -0.00, -1.00, 448.7, 316.0)">o</text><text xml:space="preserve" font-family="Helvetica-BoldOblique" font-style="italic" font-weight="bold" font-size="38.0" fill="#FEFFFF" transform="matrix(1.00, 0.00, -0.00, -1.00, 471.9, 316.0)">n</text><image xlink:href="../../D3DA8926-8AEC-4AB5-B120-2153451380A3/assets/4F0AF401B542EC2624BB63B232CF6E0C.png" width="345.00" height="112.00" transform="matrix(1.00, 0.00, -0.00, -1.00, 589.5, 672.5)" opacity="0.80"></image><g><clipPath id="clip-415"><path d="M 618.4 666.5 L 905.6 666.5 C 912.2 666.5 915.5 666.5 919.1 665.4 C 922.9 664.0 926.0 660.9 927.4 657.0 C 928.5 653.5 928.5 650.1 928.5 643.5 L 928.5 589.4 C 928.5 582.9 928.5 579.5 927.4 576.0 C 926.0 572.1 922.9 569.0 919.1 567.6 C 915.5 566.5 912.2 566.5 905.5 566.5 L 618.4 566.5 C 611.8 566.5 608.5 566.5 604.9 567.6 C 601.1 569.0 598.0 572.1 596.6 576.0 C 595.5 579.5 595.5 582.9 595.5 589.5 L 595.5 643.6 C 595.5 650.1 595.5 653.5 596.6 657.0 C 598.0 660.9 601.1 664.0 604.9 665.4 C 608.5 666.5 611.8 666.5 618.5 666.5 Z M 618.4 666.5 "></path></clipPath><g clip-path="url(#clip-415)"><path d="M 618.4 666.5 L 905.6 666.5 C 912.2 666.5 915.5 666.5 919.1 665.4 C 922.9 664.0 926.0 660.9 927.4 657.0 C 928.5 653.5 928.5 650.1 928.5 643.5 L 928.5 589.4 C 928.5 582.9 928.5 579.5 927.4 576.0 C 926.0 572.1 922.9 569.0 919.1 567.6 C 915.5 566.5 912.2 566.5 905.5 566.5 L 618.4 566.5 C 611.8 566.5 608.5 566.5 604.9 567.6 C 601.1 569.0 598.0 572.1 596.6 576.0 C 595.5 579.5 595.5 582.9 595.5 589.5 L 595.5 643.6 C 595.5 650.1 595.5 653.5 596.6 657.0 C 598.0 660.9 601.1 664.0 604.9 665.4 C 608.5 666.5 611.8 666.5 618.5 666.5 Z M 618.4 666.5 " fill="url(#gradSh1.70)"></path></g></g><text xml:space="preserve" font-family="Monaco" font-size="38.0" fill="#FEFFFF" transform="matrix(1.00, 0.00, -0.00, -1.00, 705.0, 602.0)">L</text><text xml:space="preserve" font-family="Monaco" font-size="38.0" fill="#FEFFFF" transform="matrix(1.00, 0.00, -0.00, -1.00, 727.8, 602.0)">e</text><text xml:space="preserve" font-family="Monaco" font-size="38.0" fill="#FEFFFF" transform="matrix(1.00, 0.00, -0.00, -1.00, 750.6, 602.0)">a</text><text xml:space="preserve" font-family="Monaco" font-size="38.0" fill="#FEFFFF" transform="matrix(1.00, 0.00, -0.00, -1.00, 773.4, 602.0)">r</text><text xml:space="preserve" font-family="Monaco" font-size="38.0" fill="#FEFFFF" transform="matrix(1.00, 0.00, -0.00, -1.00, 796.2, 602.0)">n</text></g></svg>