<?xml version="1.0" encoding="UTF-8" standalone="no"?><svg xmlns="http://www.w3.org/2000/svg" xmlns:xlink="http://www.w3.org/1999/xlink" clip-rule="evenodd" stroke-miterlimit="4.00" viewBox="0 0 1024 768"><desc>SVG generated by Keynote</desc><defs></defs><g transform="matrix(1.00, 0.00, -0.00, -1.00, 0.0, 768.0)"><g><clipPath id="clip-135"><path d="M 0.0 768.0 L 1024.0 768.0 L 1024.0 0.0 L 0.0 0.0 Z M 0.0 768.0 "></path></clipPath><g clip-path="url(#clip-135)"><image xlink:href="../../30B7321D-9918-41AC-AA51-AB2EAA3DCF6E/assets/C58B69C55A3E82F4B831EE06AE03AE34.jpeg" width="1024.00" height="768.00" transform="matrix(1.00, 0.00, -0.00, -1.00, 0.0, 768.0)"></image></g></g><image xlink:href="../../DAEECF90-55C3-4E80-88BA-83E65992307C/assets/789199DFAC13686BE6AC064B5EE4BD3F.png" width="256.00" height="101.00" transform="matrix(1.00, 0.00, -0.00, -1.00, 383.9, 233.6)" opacity="0.80"></image><path d="M 412.8 227.6 L 611.2 227.6 C 617.8 227.6 621.1 227.6 624.6 226.5 C 628.5 225.1 631.6 222.1 633.0 218.2 C 634.1 214.6 634.1 211.3 634.1 204.6 L 634.1 161.5 C 634.1 154.9 634.1 151.6 633.0 148.1 C 631.6 144.2 628.5 141.1 624.6 139.7 C 621.1 138.6 617.8 138.6 611.1 138.6 L 412.8 138.6 C 406.2 138.6 402.9 138.6 399.4 139.7 C 395.5 141.1 392.4 144.2 391.0 148.1 C 389.9 151.6 389.9 154.9 389.9 161.6 L 389.9 204.7 C 389.9 211.3 389.9 214.6 391.0 218.2 C 392.4 222.1 395.5 225.1 399.4 226.5 C 402.9 227.6 406.2 227.6 412.9 227.6 Z M 412.8 227.6 " fill="#FEFFFE"></path><image xlink:href="../../DAEECF90-55C3-4E80-88BA-83E65992307C/assets/C4351474B1753CA300D57159F47650D1.png" width="246.00" height="83.00" transform="matrix(1.00, 0.00, -0.00, -1.00, 149.5, 650.1)" opacity="0.80"></image><path d="M 178.5 644.1 L 366.5 644.1 C 373.1 644.1 376.4 644.1 379.9 643.0 C 383.8 641.6 386.9 638.5 388.3 634.7 C 389.4 631.1 389.4 627.8 389.4 621.1 L 389.4 596.1 C 389.4 589.5 389.4 586.2 388.3 582.6 C 386.9 578.7 383.8 575.7 379.9 574.3 C 376.4 573.1 373.1 573.1 366.4 573.1 L 178.5 573.1 C 171.9 573.1 168.6 573.1 165.0 574.3 C 161.1 575.7 158.1 578.7 156.7 582.6 C 155.5 586.2 155.5 589.5 155.5 596.2 L 155.5 621.2 C 155.5 627.8 155.5 631.1 156.7 634.7 C 158.1 638.5 161.1 641.6 165.0 643.0 C 168.6 644.1 171.9 644.1 178.6 644.1 Z M 178.5 644.1 " fill="#FEFFFE"></path><image xlink:href="../../DAEECF90-55C3-4E80-88BA-83E65992307C/assets/ED3F49424EAD58C2C37B8CBDCF1010B0.png" width="220.00" height="83.00" transform="matrix(1.00, 0.00, -0.00, -1.00, 597.0, 647.7)" opacity="0.80"></image><path d="M 628.4 641.7 L 785.4 641.7 C 792.7 641.7 796.4 641.7 800.3 640.5 C 804.6 638.9 808.0 635.6 809.5 631.3 C 810.8 627.4 810.8 623.7 810.8 616.3 L 810.8 595.8 C 810.8 588.6 810.8 584.9 809.5 581.0 C 808.0 576.7 804.6 573.3 800.3 571.7 C 796.4 570.5 792.7 570.5 785.3 570.5 L 628.4 570.5 C 621.1 570.5 617.4 570.5 613.5 571.7 C 609.2 573.3 605.8 576.7 604.3 581.0 C 603.0 584.9 603.0 588.6 603.0 595.9 L 603.0 616.4 C 603.0 623.7 603.0 627.4 604.3 631.3 C 605.8 635.6 609.2 638.9 613.5 640.5 C 617.4 641.7 621.1 641.7 628.5 641.7 Z M 628.4 641.7 " fill="#FEFFFE"></path><image xlink:href="../../DAEECF90-55C3-4E80-88BA-83E65992307C/assets/36A26CE52DB3FBC452CE2D5A47466827.png" width="163.00" height="43.00" transform="matrix(1.12, 0.00, -0.00, -1.12, 611.0, 633.0)"></image><image xlink:href="../../DAEECF90-55C3-4E80-88BA-83E65992307C/assets/009DF2B8F654768FD3DE1D479ECA078F.png" width="220.00" height="71.00" transform="matrix(1.25, 0.00, -0.00, -1.25, 564.0, 456.0)"></image><image xlink:href="../../DAEECF90-55C3-4E80-88BA-83E65992307C/assets/A3C4564E9B6A90FC8C3C990B95E9AF9B.png" width="220.00" height="71.00" transform="matrix(1.00, 0.00, -0.00, -1.00, 397.0, 219.0)"></image><image xlink:href="../../DAEECF90-55C3-4E80-88BA-83E65992307C/assets/1285ED4E87EF074789AAB73271DB95D5.png" width="220.00" height="47.00" transform="matrix(1.00, 0.00, -0.00, -1.00, 162.0, 630.0)"></image><image xlink:href="../../DAEECF90-55C3-4E80-88BA-83E65992307C/assets/1E346D8D1703A95E3D0ED8EBE5E71CD3.png" width="220.00" height="120.00" transform="matrix(1.00, 0.00, -0.00, -1.00, 162.0, 471.0)"></image><path d="M 0.0 0.0 L 678.0 0.0 " fill="none" stroke="#FEFFFE" stroke-width="2.00" transform="matrix(1.00, 0.00, 0.00, -1.00, 173.0, 279.0)"></path></g></svg>