<?xml version="1.0" encoding="UTF-8" standalone="no"?><svg xmlns="http://www.w3.org/2000/svg" xmlns:xlink="http://www.w3.org/1999/xlink" clip-rule="evenodd" stroke-miterlimit="4.00" viewBox="0 0 1024 768"><desc>SVG generated by Keynote</desc><defs></defs><g transform="matrix(1.00, 0.00, -0.00, -1.00, 0.0, 768.0)"><g><clipPath id="clip-60"><path d="M 0.0 768.0 L 1024.0 768.0 L 1024.0 0.0 L 0.0 0.0 Z M 0.0 768.0 "></path></clipPath><g clip-path="url(#clip-60)"><image xlink:href="../../30B7321D-9918-41AC-AA51-AB2EAA3DCF6E/assets/C58B69C55A3E82F4B831EE06AE03AE34.jpeg" width="1024.00" height="768.00" transform="matrix(1.00, 0.00, -0.00, -1.00, 0.0, 768.0)"></image></g></g><text xml:space="preserve" font-family="Helvetica-Light" font-size="40.0" fill="#FEFFFE" transform="matrix(1.00, 0.00, -0.00, -1.00, 180.0, 354.0)">T</text><text xml:space="preserve" font-family="Helvetica-Light" font-size="40.0" fill="#FEFFFE" transform="matrix(1.00, 0.00, -0.00, -1.00, 202.2, 354.0)">h</text><text xml:space="preserve" font-family="Helvetica-Light" font-size="40.0" fill="#FEFFFE" transform="matrix(1.00, 0.00, -0.00, -1.00, 224.5, 354.0)">o</text><text xml:space="preserve" font-family="Helvetica-Light" font-size="40.0" fill="#FEFFFE" transform="matrix(1.00, 0.00, -0.00, -1.00, 246.7, 354.0)">u</text><text xml:space="preserve" font-family="Helvetica-Light" font-size="40.0" fill="#FEFFFE" transform="matrix(1.00, 0.00, -0.00, -1.00, 269.0, 354.0)">g</text><text xml:space="preserve" font-family="Helvetica-Light" font-size="40.0" fill="#FEFFFE" transform="matrix(1.00, 0.00, -0.00, -1.00, 293.4, 354.0)">h</text><text xml:space="preserve" font-family="Helvetica-Light" font-size="40.0" fill="#FEFFFE" transform="matrix(1.00, 0.00, -0.00, -1.00, 315.6, 354.0)"> </text><text xml:space="preserve" font-family="Helvetica-Light" font-size="40.0" fill="#FEFFFE" transform="matrix(1.00, 0.00, -0.00, -1.00, 326.8, 354.0)">C</text><text xml:space="preserve" font-family="Helvetica-Light" font-size="40.0" fill="#FEFFFE" transform="matrix(1.00, 0.00, -0.00, -1.00, 355.6, 354.0)">l</text><text xml:space="preserve" font-family="Helvetica-Light" font-size="40.0" fill="#FEFFFE" transform="matrix(1.00, 0.00, -0.00, -1.00, 364.5, 354.0)">o</text><text xml:space="preserve" font-family="Helvetica-Light" font-size="40.0" fill="#FEFFFE" transform="matrix(1.00, 0.00, -0.00, -1.00, 386.8, 354.0)">j</text><text xml:space="preserve" font-family="Helvetica-Light" font-size="40.0" fill="#FEFFFE" transform="matrix(1.00, 0.00, -0.00, -1.00, 395.6, 354.0)">u</text><text xml:space="preserve" font-family="Helvetica-Light" font-size="40.0" fill="#FEFFFE" transform="matrix(1.00, 0.00, -0.00, -1.00, 417.9, 354.0)">r</text><text xml:space="preserve" font-family="Helvetica-Light" font-size="40.0" fill="#FEFFFE" transform="matrix(1.00, 0.00, -0.00, -1.00, 430.5, 354.0)">e</text><text xml:space="preserve" font-family="Helvetica-Light" font-size="40.0" fill="#FEFFFE" transform="matrix(1.00, 0.00, -0.00, -1.00, 452.7, 354.0)"> </text><text xml:space="preserve" font-family="Helvetica-Light" font-size="40.0" fill="#FEFFFE" transform="matrix(1.00, 0.00, -0.00, -1.00, 463.8, 354.0)">l</text><text xml:space="preserve" font-family="Helvetica-Light" font-size="40.0" fill="#FEFFFE" transform="matrix(1.00, 0.00, -0.00, -1.00, 472.7, 354.0)">o</text><text xml:space="preserve" font-family="Helvetica-Light" font-size="40.0" fill="#FEFFFE" transform="matrix(1.00, 0.00, -0.00, -1.00, 495.0, 354.0)">o</text><text xml:space="preserve" font-family="Helvetica-Light" font-size="40.0" fill="#FEFFFE" transform="matrix(1.00, 0.00, -0.00, -1.00, 517.2, 354.0)">k</text><text xml:space="preserve" font-family="Helvetica-Light" font-size="40.0" fill="#FEFFFE" transform="matrix(1.00, 0.00, -0.00, -1.00, 537.2, 354.0)">s</text><text xml:space="preserve" font-family="Helvetica-Light" font-size="40.0" fill="#FEFFFE" transform="matrix(1.00, 0.00, -0.00, -1.00, 557.2, 354.0)"> </text><text xml:space="preserve" font-family="Helvetica-Light" font-size="40.0" fill="#FEFFFE" transform="matrix(1.00, 0.00, -0.00, -1.00, 568.3, 354.0)">m</text><text xml:space="preserve" font-family="Helvetica-Light" font-size="40.0" fill="#FEFFFE" transform="matrix(1.00, 0.00, -0.00, -1.00, 601.6, 354.0)">o</text><text xml:space="preserve" font-family="Helvetica-Light" font-size="40.0" fill="#FEFFFE" transform="matrix(1.00, 0.00, -0.00, -1.00, 623.9, 354.0)">r</text><text xml:space="preserve" font-family="Helvetica-Light" font-size="40.0" fill="#FEFFFE" transform="matrix(1.00, 0.00, -0.00, -1.00, 636.5, 354.0)">e</text><text xml:space="preserve" font-family="Helvetica-Light" font-size="40.0" fill="#FEFFFE" transform="matrix(1.00, 0.00, -0.00, -1.00, 658.7, 354.0)"> </text><text xml:space="preserve" font-family="Helvetica-Light" font-size="40.0" fill="#FEFFFE" transform="matrix(1.00, 0.00, -0.00, -1.00, 669.8, 354.0)">l</text><text xml:space="preserve" font-family="Helvetica-Light" font-size="40.0" fill="#FEFFFE" transform="matrix(1.00, 0.00, -0.00, -1.00, 678.7, 354.0)">i</text><text xml:space="preserve" font-family="Helvetica-Light" font-size="40.0" fill="#FEFFFE" transform="matrix(1.00, 0.00, -0.00, -1.00, 687.6, 354.0)">k</text><text xml:space="preserve" font-family="Helvetica-Light" font-size="40.0" fill="#FEFFFE" transform="matrix(1.00, 0.00, -0.00, -1.00, 707.6, 354.0)">e</text><text xml:space="preserve" font-family="Helvetica-Light" font-size="40.0" fill="#FEFFFE" transform="matrix(1.00, 0.00, -0.00, -1.00, 729.8, 354.0)"> </text><text xml:space="preserve" font-family="Helvetica-Light" font-size="40.0" fill="#FEFFFE" transform="matrix(1.00, 0.00, -0.00, -1.00, 741.0, 354.0)">t</text><text xml:space="preserve" font-family="Helvetica-Light" font-size="40.0" fill="#FEFFFE" transform="matrix(1.00, 0.00, -0.00, -1.00, 752.1, 354.0)">h</text><text xml:space="preserve" font-family="Helvetica-Light" font-size="40.0" fill="#FEFFFE" transform="matrix(1.00, 0.00, -0.00, -1.00, 774.3, 354.0)">i</text><text xml:space="preserve" font-family="Helvetica-Light" font-size="40.0" fill="#FEFFFE" transform="matrix(1.00, 0.00, -0.00, -1.00, 783.2, 354.0)">s</text><text xml:space="preserve" font-family="Helvetica-Light" font-size="40.0" fill="#FEFFFE" transform="matrix(1.00, 0.00, -0.00, -1.00, 803.2, 354.0)">…</text></g></svg>