<?xml version="1.0" encoding="UTF-8" standalone="no"?><svg xmlns="http://www.w3.org/2000/svg" xmlns:xlink="http://www.w3.org/1999/xlink" clip-rule="evenodd" stroke-miterlimit="4.00" viewBox="0 0 1024 768"><desc>SVG generated by Keynote</desc><defs></defs><g transform="matrix(1.00, 0.00, -0.00, -1.00, 0.0, 768.0)"><g><clipPath id="clip-168"><path d="M 0.0 768.0 L 1024.0 768.0 L 1024.0 0.0 L 0.0 0.0 Z M 0.0 768.0 "></path></clipPath><g clip-path="url(#clip-168)"><image xlink:href="../../30B7321D-9918-41AC-AA51-AB2EAA3DCF6E/assets/C58B69C55A3E82F4B831EE06AE03AE34.jpeg" width="1024.00" height="768.00" transform="matrix(1.00, 0.00, -0.00, -1.00, 0.0, 768.0)"></image></g></g><text xml:space="preserve" font-family="Helvetica-Bold" font-weight="bold" font-size="46.0" fill="#FEFFFF" transform="matrix(1.00, 0.00, -0.00, -1.00, 398.0, 367.0)">E</text><text xml:space="preserve" font-family="Helvetica-Bold" font-weight="bold" font-size="46.0" fill="#FEFFFF" transform="matrix(1.00, 0.00, -0.00, -1.00, 428.7, 367.0)">x</text><text xml:space="preserve" font-family="Helvetica-Bold" font-weight="bold" font-size="46.0" fill="#FEFFFF" transform="matrix(1.00, 0.00, -0.00, -1.00, 454.3, 367.0)">a</text><text xml:space="preserve" font-family="Helvetica-Bold" font-weight="bold" font-size="46.0" fill="#FEFFFF" transform="matrix(1.00, 0.00, -0.00, -1.00, 479.9, 367.0)">m</text><text xml:space="preserve" font-family="Helvetica-Bold" font-weight="bold" font-size="46.0" fill="#FEFFFF" transform="matrix(1.00, 0.00, -0.00, -1.00, 520.8, 367.0)">p</text><text xml:space="preserve" font-family="Helvetica-Bold" font-weight="bold" font-size="46.0" fill="#FEFFFF" transform="matrix(1.00, 0.00, -0.00, -1.00, 548.9, 367.0)">l</text><text xml:space="preserve" font-family="Helvetica-Bold" font-weight="bold" font-size="46.0" fill="#FEFFFF" transform="matrix(1.00, 0.00, -0.00, -1.00, 561.6, 367.0)">e</text><text xml:space="preserve" font-family="Helvetica-Bold" font-weight="bold" font-size="46.0" fill="#FEFFFF" transform="matrix(1.00, 0.00, -0.00, -1.00, 587.2, 367.0)">s</text><text xml:space="preserve" font-family="Monaco" font-size="18.0" fill="#FEFFFF" transform="matrix(1.00, 0.00, -0.00, -1.00, 213.0, 226.0)">h</text><text xml:space="preserve" font-family="Monaco" font-size="18.0" fill="#FEFFFF" transform="matrix(1.00, 0.00, -0.00, -1.00, 223.8, 226.0)">t</text><text xml:space="preserve" font-family="Monaco" font-size="18.0" fill="#FEFFFF" transform="matrix(1.00, 0.00, -0.00, -1.00, 234.6, 226.0)">t</text><text xml:space="preserve" font-family="Monaco" font-size="18.0" fill="#FEFFFF" transform="matrix(1.00, 0.00, -0.00, -1.00, 245.4, 226.0)">p</text><text xml:space="preserve" font-family="Monaco" font-size="18.0" fill="#FEFFFF" transform="matrix(1.00, 0.00, -0.00, -1.00, 256.2, 226.0)">:</text><text xml:space="preserve" font-family="Monaco" font-size="18.0" fill="#FEFFFF" transform="matrix(1.00, 0.00, -0.00, -1.00, 267.0, 226.0)">/</text><text xml:space="preserve" font-family="Monaco" font-size="18.0" fill="#FEFFFF" transform="matrix(1.00, 0.00, -0.00, -1.00, 277.8, 226.0)">/</text><text xml:space="preserve" font-family="Monaco" font-size="18.0" fill="#FEFFFF" transform="matrix(1.00, 0.00, -0.00, -1.00, 288.6, 226.0)">g</text><text xml:space="preserve" font-family="Monaco" font-size="18.0" fill="#FEFFFF" transform="matrix(1.00, 0.00, -0.00, -1.00, 299.4, 226.0)">i</text><text xml:space="preserve" font-family="Monaco" font-size="18.0" fill="#FEFFFF" transform="matrix(1.00, 0.00, -0.00, -1.00, 310.2, 226.0)">t</text><text xml:space="preserve" font-family="Monaco" font-size="18.0" fill="#FEFFFF" transform="matrix(1.00, 0.00, -0.00, -1.00, 321.0, 226.0)">h</text><text xml:space="preserve" font-family="Monaco" font-size="18.0" fill="#FEFFFF" transform="matrix(1.00, 0.00, -0.00, -1.00, 331.8, 226.0)">u</text><text xml:space="preserve" font-family="Monaco" font-size="18.0" fill="#FEFFFF" transform="matrix(1.00, 0.00, -0.00, -1.00, 342.6, 226.0)">b</text><text xml:space="preserve" font-family="Monaco" font-size="18.0" fill="#FEFFFF" transform="matrix(1.00, 0.00, -0.00, -1.00, 353.4, 226.0)">.</text><text xml:space="preserve" font-family="Monaco" font-size="18.0" fill="#FEFFFF" transform="matrix(1.00, 0.00, -0.00, -1.00, 364.2, 226.0)">c</text><text xml:space="preserve" font-family="Monaco" font-size="18.0" fill="#FEFFFF" transform="matrix(1.00, 0.00, -0.00, -1.00, 375.1, 226.0)">o</text><text xml:space="preserve" font-family="Monaco" font-size="18.0" fill="#FEFFFF" transform="matrix(1.00, 0.00, -0.00, -1.00, 385.9, 226.0)">m</text><text xml:space="preserve" font-family="Monaco" font-size="18.0" fill="#FEFFFF" transform="matrix(1.00, 0.00, -0.00, -1.00, 396.7, 226.0)">/</text><text xml:space="preserve" font-family="Monaco" font-size="18.0" fill="#FEFFFF" transform="matrix(1.00, 0.00, -0.00, -1.00, 407.5, 226.0)">c</text><text xml:space="preserve" font-family="Monaco" font-size="18.0" fill="#FEFFFF" transform="matrix(1.00, 0.00, -0.00, -1.00, 418.3, 226.0)">o</text><text xml:space="preserve" font-family="Monaco" font-size="18.0" fill="#FEFFFF" transform="matrix(1.00, 0.00, -0.00, -1.00, 429.1, 226.0)">d</text><text xml:space="preserve" font-family="Monaco" font-size="18.0" fill="#FEFFFF" transform="matrix(1.00, 0.00, -0.00, -1.00, 439.9, 226.0)">e</text><text xml:space="preserve" font-family="Monaco" font-size="18.0" fill="#FEFFFF" transform="matrix(1.00, 0.00, -0.00, -1.00, 450.7, 226.0)">t</text><text xml:space="preserve" font-family="Monaco" font-size="18.0" fill="#FEFFFF" transform="matrix(1.00, 0.00, -0.00, -1.00, 461.5, 226.0)">o</text><text xml:space="preserve" font-family="Monaco" font-size="18.0" fill="#FEFFFF" transform="matrix(1.00, 0.00, -0.00, -1.00, 472.3, 226.0)">j</text><text xml:space="preserve" font-family="Monaco" font-size="18.0" fill="#FEFFFF" transform="matrix(1.00, 0.00, -0.00, -1.00, 483.1, 226.0)">o</text><text xml:space="preserve" font-family="Monaco" font-size="18.0" fill="#FEFFFF" transform="matrix(1.00, 0.00, -0.00, -1.00, 493.9, 226.0)">y</text><text xml:space="preserve" font-family="Monaco" font-size="18.0" fill="#FEFFFF" transform="matrix(1.00, 0.00, -0.00, -1.00, 504.7, 226.0)">/</text><text xml:space="preserve" font-family="Monaco" font-size="18.0" fill="#FEFFFF" transform="matrix(1.00, 0.00, -0.00, -1.00, 515.5, 226.0)">t</text><text xml:space="preserve" font-family="Monaco" font-size="18.0" fill="#FEFFFF" transform="matrix(1.00, 0.00, -0.00, -1.00, 526.3, 226.0)">a</text><text xml:space="preserve" font-family="Monaco" font-size="18.0" fill="#FEFFFF" transform="matrix(1.00, 0.00, -0.00, -1.00, 537.1, 226.0)">l</text><text xml:space="preserve" font-family="Monaco" font-size="18.0" fill="#FEFFFF" transform="matrix(1.00, 0.00, -0.00, -1.00, 547.9, 226.0)">k</text><text xml:space="preserve" font-family="Monaco" font-size="18.0" fill="#FEFFFF" transform="matrix(1.00, 0.00, -0.00, -1.00, 558.7, 226.0)">_</text><text xml:space="preserve" font-family="Monaco" font-size="18.0" fill="#FEFFFF" transform="matrix(1.00, 0.00, -0.00, -1.00, 569.5, 226.0)">m</text><text xml:space="preserve" font-family="Monaco" font-size="18.0" fill="#FEFFFF" transform="matrix(1.00, 0.00, -0.00, -1.00, 580.3, 226.0)">a</text><text xml:space="preserve" font-family="Monaco" font-size="18.0" fill="#FEFFFF" transform="matrix(1.00, 0.00, -0.00, -1.00, 591.1, 226.0)">r</text><text xml:space="preserve" font-family="Monaco" font-size="18.0" fill="#FEFFFF" transform="matrix(1.00, 0.00, -0.00, -1.00, 601.9, 226.0)">i</text><text xml:space="preserve" font-family="Monaco" font-size="18.0" fill="#FEFFFF" transform="matrix(1.00, 0.00, -0.00, -1.00, 612.7, 226.0)">t</text><text xml:space="preserve" font-family="Monaco" font-size="18.0" fill="#FEFFFF" transform="matrix(1.00, 0.00, -0.00, -1.00, 623.5, 226.0)">i</text><text xml:space="preserve" font-family="Monaco" font-size="18.0" fill="#FEFFFF" transform="matrix(1.00, 0.00, -0.00, -1.00, 634.3, 226.0)">m</text><text xml:space="preserve" font-family="Monaco" font-size="18.0" fill="#FEFFFF" transform="matrix(1.00, 0.00, -0.00, -1.00, 645.1, 226.0)">e</text><text xml:space="preserve" font-family="Monaco" font-size="18.0" fill="#FEFFFF" transform="matrix(1.00, 0.00, -0.00, -1.00, 655.9, 226.0)">d</text><text xml:space="preserve" font-family="Monaco" font-size="18.0" fill="#FEFFFF" transform="matrix(1.00, 0.00, -0.00, -1.00, 666.7, 226.0)">e</text><text xml:space="preserve" font-family="Monaco" font-size="18.0" fill="#FEFFFF" transform="matrix(1.00, 0.00, -0.00, -1.00, 677.6, 226.0)">v</text><text xml:space="preserve" font-family="Monaco" font-size="18.0" fill="#FEFFFF" transform="matrix(1.00, 0.00, -0.00, -1.00, 688.4, 226.0)">c</text><text xml:space="preserve" font-family="Monaco" font-size="18.0" fill="#FEFFFF" transform="matrix(1.00, 0.00, -0.00, -1.00, 699.2, 226.0)">o</text><text xml:space="preserve" font-family="Monaco" font-size="18.0" fill="#FEFFFF" transform="matrix(1.00, 0.00, -0.00, -1.00, 710.0, 226.0)">n</text><text xml:space="preserve" font-family="Monaco" font-size="18.0" fill="#FEFFFF" transform="matrix(1.00, 0.00, -0.00, -1.00, 720.8, 226.0)">_</text><text xml:space="preserve" font-family="Monaco" font-size="18.0" fill="#FEFFFF" transform="matrix(1.00, 0.00, -0.00, -1.00, 731.6, 226.0)">g</text><text xml:space="preserve" font-family="Monaco" font-size="18.0" fill="#FEFFFF" transform="matrix(1.00, 0.00, -0.00, -1.00, 742.4, 226.0)">r</text><text xml:space="preserve" font-family="Monaco" font-size="18.0" fill="#FEFFFF" transform="matrix(1.00, 0.00, -0.00, -1.00, 753.2, 226.0)">o</text><text xml:space="preserve" font-family="Monaco" font-size="18.0" fill="#FEFFFF" transform="matrix(1.00, 0.00, -0.00, -1.00, 764.0, 226.0)">o</text><text xml:space="preserve" font-family="Monaco" font-size="18.0" fill="#FEFFFF" transform="matrix(1.00, 0.00, -0.00, -1.00, 774.8, 226.0)">v</text><text xml:space="preserve" font-family="Monaco" font-size="18.0" fill="#FEFFFF" transform="matrix(1.00, 0.00, -0.00, -1.00, 785.6, 226.0)">y</text><g><clipPath id="clip-169"><path d="M 212.4 222.2 L 796.6 222.2 L 796.6 225.5 L 212.4 225.5 Z M 212.4 222.2 "></path></clipPath><g clip-path="url(#clip-169)"><path d="M 4.5 24.9 L 587.8 24.9 " fill="none" stroke="#FEFFFF" stroke-width="1.36" stroke-miterlimit="0.00" transform="matrix(1.00, 0.00, 0.00, -1.00, 208.9, 248.7)"></path></g></g></g></svg>