<?xml version="1.0" encoding="UTF-8" standalone="no"?><svg xmlns="http://www.w3.org/2000/svg" xmlns:xlink="http://www.w3.org/1999/xlink" clip-rule="evenodd" stroke-miterlimit="4.00" viewBox="0 0 1024 768"><desc>SVG generated by Keynote</desc><defs></defs><g transform="matrix(1.00, 0.00, -0.00, -1.00, 0.0, 768.0)"><g><clipPath id="clip-2"><path d="M 0.0 768.0 L 1024.0 768.0 L 1024.0 0.0 L 0.0 0.0 Z M 0.0 768.0 "></path></clipPath><g clip-path="url(#clip-2)"><image xlink:href="../../30B7321D-9918-41AC-AA51-AB2EAA3DCF6E/assets/C58B69C55A3E82F4B831EE06AE03AE34.jpeg" width="1024.00" height="768.00" transform="matrix(1.00, 0.00, -0.00, -1.00, 0.0, 768.0)"></image></g></g><text xml:space="preserve" font-family="Helvetica-Bold" font-weight="bold" font-size="40.0" fill="#FEFFFE" transform="matrix(1.00, 0.00, -0.00, -1.00, 310.0, 570.0)">T</text><text xml:space="preserve" font-family="Helvetica-Bold" font-weight="bold" font-size="40.0" fill="#FEFFFE" transform="matrix(1.00, 0.00, -0.00, -1.00, 334.4, 570.0)">h</text><text xml:space="preserve" font-family="Helvetica-Bold" font-weight="bold" font-size="40.0" fill="#FEFFFE" transform="matrix(1.00, 0.00, -0.00, -1.00, 358.9, 570.0)">e</text><text xml:space="preserve" font-family="Helvetica-Bold" font-weight="bold" font-size="40.0" fill="#FEFFFE" transform="matrix(1.00, 0.00, -0.00, -1.00, 381.1, 570.0)"> </text><text xml:space="preserve" font-family="Helvetica-Bold" font-weight="bold" font-size="40.0" fill="#FEFFFE" transform="matrix(1.00, 0.00, -0.00, -1.00, 392.2, 570.0)">P</text><text xml:space="preserve" font-family="Helvetica-Bold" font-weight="bold" font-size="40.0" fill="#FEFFFE" transform="matrix(1.00, 0.00, -0.00, -1.00, 418.9, 570.0)">a</text><text xml:space="preserve" font-family="Helvetica-Bold" font-weight="bold" font-size="40.0" fill="#FEFFFE" transform="matrix(1.00, 0.00, -0.00, -1.00, 441.1, 570.0)">s</text><text xml:space="preserve" font-family="Helvetica-Bold" font-weight="bold" font-size="40.0" fill="#FEFFFE" transform="matrix(1.00, 0.00, -0.00, -1.00, 463.4, 570.0)">s</text><text xml:space="preserve" font-family="Helvetica-Bold" font-weight="bold" font-size="40.0" fill="#FEFFFE" transform="matrix(1.00, 0.00, -0.00, -1.00, 485.7, 570.0)">i</text><text xml:space="preserve" font-family="Helvetica-Bold" font-weight="bold" font-size="40.0" fill="#FEFFFE" transform="matrix(1.00, 0.00, -0.00, -1.00, 496.8, 570.0)">o</text><text xml:space="preserve" font-family="Helvetica-Bold" font-weight="bold" font-size="40.0" fill="#FEFFFE" transform="matrix(1.00, 0.00, -0.00, -1.00, 521.2, 570.0)">n</text><text xml:space="preserve" font-family="Helvetica-Bold" font-weight="bold" font-size="40.0" fill="#FEFFFE" transform="matrix(1.00, 0.00, -0.00, -1.00, 545.6, 570.0)"> </text><text xml:space="preserve" font-family="Helvetica-Bold" font-weight="bold" font-size="40.0" fill="#FEFFFE" transform="matrix(1.00, 0.00, -0.00, -1.00, 556.7, 570.0)">P</text><text xml:space="preserve" font-family="Helvetica-Bold" font-weight="bold" font-size="40.0" fill="#FEFFFE" transform="matrix(1.00, 0.00, -0.00, -1.00, 583.4, 570.0)">a</text><text xml:space="preserve" font-family="Helvetica-Bold" font-weight="bold" font-size="40.0" fill="#FEFFFE" transform="matrix(1.00, 0.00, -0.00, -1.00, 605.6, 570.0)">r</text><text xml:space="preserve" font-family="Helvetica-Bold" font-weight="bold" font-size="40.0" fill="#FEFFFE" transform="matrix(1.00, 0.00, -0.00, -1.00, 621.2, 570.0)">a</text><text xml:space="preserve" font-family="Helvetica-Bold" font-weight="bold" font-size="40.0" fill="#FEFFFE" transform="matrix(1.00, 0.00, -0.00, -1.00, 643.5, 570.0)">d</text><text xml:space="preserve" font-family="Helvetica-Bold" font-weight="bold" font-size="40.0" fill="#FEFFFE" transform="matrix(1.00, 0.00, -0.00, -1.00, 667.9, 570.0)">o</text><text xml:space="preserve" font-family="Helvetica-Bold" font-weight="bold" font-size="40.0" fill="#FEFFFE" transform="matrix(1.00, 0.00, -0.00, -1.00, 692.3, 570.0)">x</text><text xml:space="preserve" font-family="Helvetica-Light" font-size="40.0" fill="#FEFFFE" transform="matrix(1.00, 0.00, -0.00, -1.00, 250.0, 426.0)">O</text><text xml:space="preserve" font-family="Helvetica-Light" font-size="40.0" fill="#FEFFFE" transform="matrix(1.00, 0.00, -0.00, -1.00, 281.1, 426.0)">n</text><text xml:space="preserve" font-family="Helvetica-Light" font-size="40.0" fill="#FEFFFE" transform="matrix(1.00, 0.00, -0.00, -1.00, 303.4, 426.0)"> </text><text xml:space="preserve" font-family="Helvetica-Light" font-size="40.0" fill="#FEFFFE" transform="matrix(1.00, 0.00, -0.00, -1.00, 314.5, 426.0)">o</text><text xml:space="preserve" font-family="Helvetica-Light" font-size="40.0" fill="#FEFFFE" transform="matrix(1.00, 0.00, -0.00, -1.00, 336.7, 426.0)">n</text><text xml:space="preserve" font-family="Helvetica-Light" font-size="40.0" fill="#FEFFFE" transform="matrix(1.00, 0.00, -0.00, -1.00, 359.0, 426.0)">e</text><text xml:space="preserve" font-family="Helvetica-Light" font-size="40.0" fill="#FEFFFE" transform="matrix(1.00, 0.00, -0.00, -1.00, 381.2, 426.0)"> </text><text xml:space="preserve" font-family="Helvetica-Light" font-size="40.0" fill="#FEFFFE" transform="matrix(1.00, 0.00, -0.00, -1.00, 392.3, 426.0)">h</text><text xml:space="preserve" font-family="Helvetica-Light" font-size="40.0" fill="#FEFFFE" transform="matrix(1.00, 0.00, -0.00, -1.00, 414.6, 426.0)">a</text><text xml:space="preserve" font-family="Helvetica-Light" font-size="40.0" fill="#FEFFFE" transform="matrix(1.00, 0.00, -0.00, -1.00, 436.8, 426.0)">n</text><text xml:space="preserve" font-family="Helvetica-Light" font-size="40.0" fill="#FEFFFE" transform="matrix(1.00, 0.00, -0.00, -1.00, 459.0, 426.0)">d</text><text xml:space="preserve" font-family="Helvetica-Light" font-size="40.0" fill="#FEFFFE" transform="matrix(1.00, 0.00, -0.00, -1.00, 483.5, 426.0)">,</text><text xml:space="preserve" font-family="Helvetica-Light" font-size="40.0" fill="#FEFFFE" transform="matrix(1.00, 0.00, -0.00, -1.00, 494.6, 426.0)"> </text><text xml:space="preserve" font-family="Helvetica-Light" font-size="40.0" fill="#FEFFFE" transform="matrix(1.00, 0.00, -0.00, -1.00, 505.7, 426.0)">d</text><text xml:space="preserve" font-family="Helvetica-Light" font-size="40.0" fill="#FEFFFE" transform="matrix(1.00, 0.00, -0.00, -1.00, 530.2, 426.0)">e</text><text xml:space="preserve" font-family="Helvetica-Light" font-size="40.0" fill="#FEFFFE" transform="matrix(1.00, 0.00, -0.00, -1.00, 552.4, 426.0)">v</text><text xml:space="preserve" font-family="Helvetica-Light" font-size="40.0" fill="#FEFFFE" transform="matrix(1.00, 0.00, -0.00, -1.00, 572.4, 426.0)">e</text><text xml:space="preserve" font-family="Helvetica-Light" font-size="40.0" fill="#FEFFFE" transform="matrix(1.00, 0.00, -0.00, -1.00, 594.6, 426.0)">l</text><text xml:space="preserve" font-family="Helvetica-Light" font-size="40.0" fill="#FEFFFE" transform="matrix(1.00, 0.00, -0.00, -1.00, 603.5, 426.0)">o</text><text xml:space="preserve" font-family="Helvetica-Light" font-size="40.0" fill="#FEFFFE" transform="matrix(1.00, 0.00, -0.00, -1.00, 625.8, 426.0)">p</text><text xml:space="preserve" font-family="Helvetica-Light" font-size="40.0" fill="#FEFFFE" transform="matrix(1.00, 0.00, -0.00, -1.00, 650.2, 426.0)">e</text><text xml:space="preserve" font-family="Helvetica-Light" font-size="40.0" fill="#FEFFFE" transform="matrix(1.00, 0.00, -0.00, -1.00, 672.4, 426.0)">r</text><text xml:space="preserve" font-family="Helvetica-Light" font-size="40.0" fill="#FEFFFE" transform="matrix(1.00, 0.00, -0.00, -1.00, 685.8, 426.0)">s</text><text xml:space="preserve" font-family="Helvetica-Light" font-size="40.0" fill="#FEFFFE" transform="matrix(1.00, 0.00, -0.00, -1.00, 705.8, 426.0)"> </text><text xml:space="preserve" font-family="Helvetica-Light" font-size="40.0" fill="#FEFFFE" transform="matrix(1.00, 0.00, -0.00, -1.00, 716.9, 426.0)">a</text><text xml:space="preserve" font-family="Helvetica-Light" font-size="40.0" fill="#FEFFFE" transform="matrix(1.00, 0.00, -0.00, -1.00, 739.1, 426.0)">r</text><text xml:space="preserve" font-family="Helvetica-Light" font-size="40.0" fill="#FEFFFE" transform="matrix(1.00, 0.00, -0.00, -1.00, 751.7, 426.0)">e</text><text xml:space="preserve" font-family="Helvetica-Light" font-size="40.0" fill="#FEFFFE" transform="matrix(1.00, 0.00, -0.00, -1.00, 774.0, 426.0)"> </text><text xml:space="preserve" font-family="Helvetica-Light" font-size="40.0" fill="#FEFFFE" transform="matrix(1.00, 0.00, -0.00, -1.00, 243.0, 354.0)">e</text><text xml:space="preserve" font-family="Helvetica-Light" font-size="40.0" fill="#FEFFFE" transform="matrix(1.00, 0.00, -0.00, -1.00, 265.2, 354.0)">n</text><text xml:space="preserve" font-family="Helvetica-Light" font-size="40.0" fill="#FEFFFE" transform="matrix(1.00, 0.00, -0.00, -1.00, 287.5, 354.0)">c</text><text xml:space="preserve" font-family="Helvetica-Light" font-size="40.0" fill="#FEFFFE" transform="matrix(1.00, 0.00, -0.00, -1.00, 309.7, 354.0)">o</text><text xml:space="preserve" font-family="Helvetica-Light" font-size="40.0" fill="#FEFFFE" transform="matrix(1.00, 0.00, -0.00, -1.00, 332.0, 354.0)">u</text><text xml:space="preserve" font-family="Helvetica-Light" font-size="40.0" fill="#FEFFFE" transform="matrix(1.00, 0.00, -0.00, -1.00, 354.2, 354.0)">r</text><text xml:space="preserve" font-family="Helvetica-Light" font-size="40.0" fill="#FEFFFE" transform="matrix(1.00, 0.00, -0.00, -1.00, 367.5, 354.0)">a</text><text xml:space="preserve" font-family="Helvetica-Light" font-size="40.0" fill="#FEFFFE" transform="matrix(1.00, 0.00, -0.00, -1.00, 389.8, 354.0)">g</text><text xml:space="preserve" font-family="Helvetica-Light" font-size="40.0" fill="#FEFFFE" transform="matrix(1.00, 0.00, -0.00, -1.00, 414.2, 354.0)">e</text><text xml:space="preserve" font-family="Helvetica-Light" font-size="40.0" fill="#FEFFFE" transform="matrix(1.00, 0.00, -0.00, -1.00, 436.4, 354.0)">d</text><text xml:space="preserve" font-family="Helvetica-Light" font-size="40.0" fill="#FEFFFE" transform="matrix(1.00, 0.00, -0.00, -1.00, 460.9, 354.0)"> </text><text xml:space="preserve" font-family="Helvetica-Light" font-size="40.0" fill="#FEFFFE" transform="matrix(1.00, 0.00, -0.00, -1.00, 472.0, 354.0)">t</text><text xml:space="preserve" font-family="Helvetica-Light" font-size="40.0" fill="#FEFFFE" transform="matrix(1.00, 0.00, -0.00, -1.00, 483.1, 354.0)">o</text><text xml:space="preserve" font-family="Helvetica-Light" font-size="40.0" fill="#FEFFFE" transform="matrix(1.00, 0.00, -0.00, -1.00, 505.4, 354.0)"> </text><text xml:space="preserve" font-family="Helvetica-Light" font-size="40.0" fill="#FEFFFE" transform="matrix(1.00, 0.00, -0.00, -1.00, 516.5, 354.0)">b</text><text xml:space="preserve" font-family="Helvetica-Light" font-size="40.0" fill="#FEFFFE" transform="matrix(1.00, 0.00, -0.00, -1.00, 540.9, 354.0)">e</text><text xml:space="preserve" font-family="Helvetica-Light" font-size="40.0" fill="#FEFFFE" transform="matrix(1.00, 0.00, -0.00, -1.00, 563.2, 354.0)"> </text><text xml:space="preserve" font-family="Helvetica-Light" font-size="40.0" fill="#FEFFFE" transform="matrix(1.00, 0.00, -0.00, -1.00, 574.3, 354.0)">p</text><text xml:space="preserve" font-family="Helvetica-Light" font-size="40.0" fill="#FEFFFE" transform="matrix(1.00, 0.00, -0.00, -1.00, 598.7, 354.0)">a</text><text xml:space="preserve" font-family="Helvetica-Light" font-size="40.0" fill="#FEFFFE" transform="matrix(1.00, 0.00, -0.00, -1.00, 621.0, 354.0)">s</text><text xml:space="preserve" font-family="Helvetica-Light" font-size="40.0" fill="#FEFFFE" transform="matrix(1.00, 0.00, -0.00, -1.00, 641.0, 354.0)">s</text><text xml:space="preserve" font-family="Helvetica-Light" font-size="40.0" fill="#FEFFFE" transform="matrix(1.00, 0.00, -0.00, -1.00, 661.0, 354.0)">i</text><text xml:space="preserve" font-family="Helvetica-Light" font-size="40.0" fill="#FEFFFE" transform="matrix(1.00, 0.00, -0.00, -1.00, 669.8, 354.0)">o</text><text xml:space="preserve" font-family="Helvetica-Light" font-size="40.0" fill="#FEFFFE" transform="matrix(1.00, 0.00, -0.00, -1.00, 692.1, 354.0)">n</text><text xml:space="preserve" font-family="Helvetica-Light" font-size="40.0" fill="#FEFFFE" transform="matrix(1.00, 0.00, -0.00, -1.00, 714.3, 354.0)">a</text><text xml:space="preserve" font-family="Helvetica-Light" font-size="40.0" fill="#FEFFFE" transform="matrix(1.00, 0.00, -0.00, -1.00, 736.6, 354.0)">t</text><text xml:space="preserve" font-family="Helvetica-Light" font-size="40.0" fill="#FEFFFE" transform="matrix(1.00, 0.00, -0.00, -1.00, 747.7, 354.0)">e</text><text xml:space="preserve" font-family="Helvetica-Light" font-size="40.0" fill="#FEFFFE" transform="matrix(1.00, 0.00, -0.00, -1.00, 769.9, 354.0)">,</text><text xml:space="preserve" font-family="Helvetica-Light" font-size="40.0" fill="#FEFFFE" transform="matrix(1.00, 0.00, -0.00, -1.00, 781.0, 354.0)"> </text><text xml:space="preserve" font-family="Helvetica-Light" font-size="40.0" fill="#FEFFFE" transform="matrix(1.00, 0.00, -0.00, -1.00, 259.0, 282.0)">t</text><text xml:space="preserve" font-family="Helvetica-Light" font-size="40.0" fill="#FEFFFE" transform="matrix(1.00, 0.00, -0.00, -1.00, 270.1, 282.0)">o</text><text xml:space="preserve" font-family="Helvetica-Light" font-size="40.0" fill="#FEFFFE" transform="matrix(1.00, 0.00, -0.00, -1.00, 292.4, 282.0)"> </text><text xml:space="preserve" font-family="Helvetica-Light" font-size="40.0" fill="#FEFFFE" transform="matrix(1.00, 0.00, -0.00, -1.00, 303.5, 282.0)">s</text><text xml:space="preserve" font-family="Helvetica-Light" font-size="40.0" fill="#FEFFFE" transform="matrix(1.00, 0.00, -0.00, -1.00, 323.5, 282.0)">p</text><text xml:space="preserve" font-family="Helvetica-Light" font-size="40.0" fill="#FEFFFE" transform="matrix(1.00, 0.00, -0.00, -1.00, 347.9, 282.0)">e</text><text xml:space="preserve" font-family="Helvetica-Light" font-size="40.0" fill="#FEFFFE" transform="matrix(1.00, 0.00, -0.00, -1.00, 370.2, 282.0)">n</text><text xml:space="preserve" font-family="Helvetica-Light" font-size="40.0" fill="#FEFFFE" transform="matrix(1.00, 0.00, -0.00, -1.00, 392.4, 282.0)">d</text><text xml:space="preserve" font-family="Helvetica-Light" font-size="40.0" fill="#FEFFFE" transform="matrix(1.00, 0.00, -0.00, -1.00, 416.8, 282.0)"> </text><text xml:space="preserve" font-family="Helvetica-Light" font-size="40.0" fill="#FEFFFE" transform="matrix(1.00, 0.00, -0.00, -1.00, 428.0, 282.0)">t</text><text xml:space="preserve" font-family="Helvetica-Light" font-size="40.0" fill="#FEFFFE" transform="matrix(1.00, 0.00, -0.00, -1.00, 439.1, 282.0)">i</text><text xml:space="preserve" font-family="Helvetica-Light" font-size="40.0" fill="#FEFFFE" transform="matrix(1.00, 0.00, -0.00, -1.00, 448.0, 282.0)">m</text><text xml:space="preserve" font-family="Helvetica-Light" font-size="40.0" fill="#FEFFFE" transform="matrix(1.00, 0.00, -0.00, -1.00, 481.3, 282.0)">e</text><text xml:space="preserve" font-family="Helvetica-Light" font-size="40.0" fill="#FEFFFE" transform="matrix(1.00, 0.00, -0.00, -1.00, 503.5, 282.0)"> </text><text xml:space="preserve" font-family="Helvetica-Light" font-size="40.0" fill="#FEFFFE" transform="matrix(1.00, 0.00, -0.00, -1.00, 514.6, 282.0)">o</text><text xml:space="preserve" font-family="Helvetica-Light" font-size="40.0" fill="#FEFFFE" transform="matrix(1.00, 0.00, -0.00, -1.00, 536.9, 282.0)">n</text><text xml:space="preserve" font-family="Helvetica-Light" font-size="40.0" fill="#FEFFFE" transform="matrix(1.00, 0.00, -0.00, -1.00, 559.1, 282.0)"> </text><text xml:space="preserve" font-family="Helvetica-Light" font-size="40.0" fill="#FEFFFE" transform="matrix(1.00, 0.00, -0.00, -1.00, 570.2, 282.0)">a</text><text xml:space="preserve" font-family="Helvetica-Light" font-size="40.0" fill="#FEFFFE" transform="matrix(1.00, 0.00, -0.00, -1.00, 592.5, 282.0)"> </text><text xml:space="preserve" font-family="Helvetica-Light" font-size="40.0" fill="#FEFFFE" transform="matrix(1.00, 0.00, -0.00, -1.00, 603.6, 282.0)">w</text><text xml:space="preserve" font-family="Helvetica-Light" font-size="40.0" fill="#FEFFFE" transform="matrix(1.00, 0.00, -0.00, -1.00, 632.5, 282.0)">e</text><text xml:space="preserve" font-family="Helvetica-Light" font-size="40.0" fill="#FEFFFE" transform="matrix(1.00, 0.00, -0.00, -1.00, 654.7, 282.0)">e</text><text xml:space="preserve" font-family="Helvetica-Light" font-size="40.0" fill="#FEFFFE" transform="matrix(1.00, 0.00, -0.00, -1.00, 677.0, 282.0)">k</text><text xml:space="preserve" font-family="Helvetica-Light" font-size="40.0" fill="#FEFFFE" transform="matrix(1.00, 0.00, -0.00, -1.00, 697.0, 282.0)">e</text><text xml:space="preserve" font-family="Helvetica-Light" font-size="40.0" fill="#FEFFFE" transform="matrix(1.00, 0.00, -0.00, -1.00, 719.2, 282.0)">n</text><text xml:space="preserve" font-family="Helvetica-Light" font-size="40.0" fill="#FEFFFE" transform="matrix(1.00, 0.00, -0.00, -1.00, 741.4, 282.0)">d</text><text xml:space="preserve" font-family="Helvetica-Light" font-size="40.0" fill="#FEFFFE" transform="matrix(1.00, 0.00, -0.00, -1.00, 765.9, 282.0)"> </text><text xml:space="preserve" font-family="Helvetica-Light" font-size="40.0" fill="#FEFFFE" transform="matrix(1.00, 0.00, -0.00, -1.00, 197.0, 210.0)">t</text><text xml:space="preserve" font-family="Helvetica-Light" font-size="40.0" fill="#FEFFFE" transform="matrix(1.00, 0.00, -0.00, -1.00, 208.1, 210.0)">o</text><text xml:space="preserve" font-family="Helvetica-Light" font-size="40.0" fill="#FEFFFE" transform="matrix(1.00, 0.00, -0.00, -1.00, 230.4, 210.0)"> </text><text xml:space="preserve" font-family="Helvetica-Light" font-size="40.0" fill="#FEFFFE" transform="matrix(1.00, 0.00, -0.00, -1.00, 241.5, 210.0)">e</text><text xml:space="preserve" font-family="Helvetica-Light" font-size="40.0" fill="#FEFFFE" transform="matrix(1.00, 0.00, -0.00, -1.00, 263.7, 210.0)">n</text><text xml:space="preserve" font-family="Helvetica-Light" font-size="40.0" fill="#FEFFFE" transform="matrix(1.00, 0.00, -0.00, -1.00, 286.0, 210.0)">g</text><text xml:space="preserve" font-family="Helvetica-Light" font-size="40.0" fill="#FEFFFE" transform="matrix(1.00, 0.00, -0.00, -1.00, 310.4, 210.0)">a</text><text xml:space="preserve" font-family="Helvetica-Light" font-size="40.0" fill="#FEFFFE" transform="matrix(1.00, 0.00, -0.00, -1.00, 332.6, 210.0)">g</text><text xml:space="preserve" font-family="Helvetica-Light" font-size="40.0" fill="#FEFFFE" transform="matrix(1.00, 0.00, -0.00, -1.00, 357.1, 210.0)">e</text><text xml:space="preserve" font-family="Helvetica-Light" font-size="40.0" fill="#FEFFFE" transform="matrix(1.00, 0.00, -0.00, -1.00, 379.3, 210.0)">,</text><text xml:space="preserve" font-family="Helvetica-Light" font-size="40.0" fill="#FEFFFE" transform="matrix(1.00, 0.00, -0.00, -1.00, 390.4, 210.0)"> </text><text xml:space="preserve" font-family="Helvetica-Light" font-size="40.0" fill="#FEFFFE" transform="matrix(1.00, 0.00, -0.00, -1.00, 401.6, 210.0)">r</text><text xml:space="preserve" font-family="Helvetica-Light" font-size="40.0" fill="#FEFFFE" transform="matrix(1.00, 0.00, -0.00, -1.00, 414.2, 210.0)">e</text><text xml:space="preserve" font-family="Helvetica-Light" font-size="40.0" fill="#FEFFFE" transform="matrix(1.00, 0.00, -0.00, -1.00, 436.4, 210.0)">ﬂ</text><text xml:space="preserve" font-family="Helvetica-Light" font-size="40.0" fill="#FEFFFE" transform="matrix(1.00, 0.00, -0.00, -1.00, 456.4, 210.0)">e</text><text xml:space="preserve" font-family="Helvetica-Light" font-size="40.0" fill="#FEFFFE" transform="matrix(1.00, 0.00, -0.00, -1.00, 478.6, 210.0)">c</text><text xml:space="preserve" font-family="Helvetica-Light" font-size="40.0" fill="#FEFFFE" transform="matrix(1.00, 0.00, -0.00, -1.00, 500.9, 210.0)">t</text><text xml:space="preserve" font-family="Helvetica-Light" font-size="40.0" fill="#FEFFFE" transform="matrix(1.00, 0.00, -0.00, -1.00, 512.0, 210.0)">,</text><text xml:space="preserve" font-family="Helvetica-Light" font-size="40.0" fill="#FEFFFE" transform="matrix(1.00, 0.00, -0.00, -1.00, 523.1, 210.0)"> </text><text xml:space="preserve" font-family="Helvetica-Light" font-size="40.0" fill="#FEFFFE" transform="matrix(1.00, 0.00, -0.00, -1.00, 534.2, 210.0)">a</text><text xml:space="preserve" font-family="Helvetica-Light" font-size="40.0" fill="#FEFFFE" transform="matrix(1.00, 0.00, -0.00, -1.00, 556.5, 210.0)">n</text><text xml:space="preserve" font-family="Helvetica-Light" font-size="40.0" fill="#FEFFFE" transform="matrix(1.00, 0.00, -0.00, -1.00, 578.7, 210.0)">d</text><text xml:space="preserve" font-family="Helvetica-Light" font-size="40.0" fill="#FEFFFE" transform="matrix(1.00, 0.00, -0.00, -1.00, 603.2, 210.0)"> </text><text xml:space="preserve" font-family="Helvetica-Light" font-size="40.0" fill="#FEFFFE" transform="matrix(1.00, 0.00, -0.00, -1.00, 614.3, 210.0)">b</text><text xml:space="preserve" font-family="Helvetica-Light" font-size="40.0" fill="#FEFFFE" transform="matrix(1.00, 0.00, -0.00, -1.00, 638.7, 210.0)">e</text><text xml:space="preserve" font-family="Helvetica-Light" font-size="40.0" fill="#FEFFFE" transform="matrix(1.00, 0.00, -0.00, -1.00, 661.0, 210.0)"> </text><text xml:space="preserve" font-family="Helvetica-Light" font-size="40.0" fill="#FEFFFE" transform="matrix(1.00, 0.00, -0.00, -1.00, 672.1, 210.0)">i</text><text xml:space="preserve" font-family="Helvetica-Light" font-size="40.0" fill="#FEFFFE" transform="matrix(1.00, 0.00, -0.00, -1.00, 681.0, 210.0)">n</text><text xml:space="preserve" font-family="Helvetica-Light" font-size="40.0" fill="#FEFFFE" transform="matrix(1.00, 0.00, -0.00, -1.00, 703.2, 210.0)">s</text><text xml:space="preserve" font-family="Helvetica-Light" font-size="40.0" fill="#FEFFFE" transform="matrix(1.00, 0.00, -0.00, -1.00, 723.2, 210.0)">p</text><text xml:space="preserve" font-family="Helvetica-Light" font-size="40.0" fill="#FEFFFE" transform="matrix(1.00, 0.00, -0.00, -1.00, 747.6, 210.0)">i</text><text xml:space="preserve" font-family="Helvetica-Light" font-size="40.0" fill="#FEFFFE" transform="matrix(1.00, 0.00, -0.00, -1.00, 756.5, 210.0)">r</text><text xml:space="preserve" font-family="Helvetica-Light" font-size="40.0" fill="#FEFFFE" transform="matrix(1.00, 0.00, -0.00, -1.00, 769.1, 210.0)">e</text><text xml:space="preserve" font-family="Helvetica-Light" font-size="40.0" fill="#FEFFFE" transform="matrix(1.00, 0.00, -0.00, -1.00, 791.4, 210.0)">d</text><text xml:space="preserve" font-family="Helvetica-Light" font-size="40.0" fill="#FEFFFE" transform="matrix(1.00, 0.00, -0.00, -1.00, 815.8, 210.0)">.</text></g></svg>