<?xml version="1.0" encoding="UTF-8" standalone="no"?><svg xmlns="http://www.w3.org/2000/svg" xmlns:xlink="http://www.w3.org/1999/xlink" clip-rule="evenodd" stroke-miterlimit="4.00" viewBox="0 0 1024 768"><desc>SVG generated by Keynote</desc><defs></defs><g transform="matrix(1.00, 0.00, -0.00, -1.00, 0.0, 768.0)"><g><clipPath id="clip-0"><path d="M 0.0 768.0 L 1024.0 768.0 L 1024.0 0.0 L 0.0 0.0 Z M 0.0 768.0 "></path></clipPath><g clip-path="url(#clip-0)"><image xlink:href="C58B69C55A3E82F4B831EE06AE03AE34.jpeg" width="1024.00" height="768.00" transform="matrix(1.00, 0.00, -0.00, -1.00, 0.0, 768.0)"></image></g></g><text xml:space="preserve" font-family="Helvetica-Light" font-size="80.0" fill="#FEFFFF" transform="matrix(1.00, 0.00, -0.00, -1.00, 253.0, 530.0)">C</text><text xml:space="preserve" font-family="Helvetica-Light" font-size="80.0" fill="#FEFFFF" transform="matrix(1.00, 0.00, -0.00, -1.00, 310.8, 530.0)">O</text><text xml:space="preserve" font-family="Helvetica-Light" font-size="80.0" fill="#FEFFFF" transform="matrix(1.00, 0.00, -0.00, -1.00, 373.0, 530.0)">V</text><text xml:space="preserve" font-family="Helvetica-Light" font-size="80.0" fill="#FEFFFF" transform="matrix(1.00, 0.00, -0.00, -1.00, 421.9, 530.0)">E</text><text xml:space="preserve" font-family="Helvetica-Light" font-size="80.0" fill="#FEFFFF" transform="matrix(1.00, 0.00, -0.00, -1.00, 470.8, 530.0)">R</text><text xml:space="preserve" font-family="Helvetica-Light" font-size="80.0" fill="#FEFFFF" transform="matrix(1.00, 0.00, -0.00, -1.00, 522.7, 530.0)">T</text><text xml:space="preserve" font-family="Helvetica-Light" font-size="80.0" fill="#FEFFFF" transform="matrix(1.00, 0.00, -0.00, -1.00, 567.2, 530.0)"> </text><text xml:space="preserve" font-family="Helvetica-Light" font-size="80.0" fill="#FEFFFF" transform="matrix(1.00, 0.00, -0.00, -1.00, 589.4, 530.0)">O</text><text xml:space="preserve" font-family="Helvetica-Light" font-size="80.0" fill="#FEFFFF" transform="matrix(1.00, 0.00, -0.00, -1.00, 651.6, 530.0)">P</text><text xml:space="preserve" font-family="Helvetica-Light" font-size="80.0" fill="#FEFFFF" transform="matrix(1.00, 0.00, -0.00, -1.00, 700.5, 530.0)">S</text><text xml:space="preserve" font-family="Helvetica-Light" font-size="80.0" fill="#FEFFFF" transform="matrix(1.00, 0.00, -0.00, -1.00, 749.4, 530.0)">:</text><text xml:space="preserve" font-family="Helvetica-Light" font-size="80.0" fill="#FEFFFF" transform="matrix(1.00, 0.00, -0.00, -1.00, 771.6, 530.0)"> </text><text xml:space="preserve" font-family="Helvetica-Light" font-size="36.0" fill="#FEFFFF" transform="matrix(1.00, 0.00, -0.00, -1.00, 249.0, 477.0)">T</text><text xml:space="preserve" font-family="Helvetica-Light" font-size="36.0" fill="#FEFFFF" transform="matrix(1.00, 0.00, -0.00, -1.00, 269.0, 477.0)">R</text><text xml:space="preserve" font-family="Helvetica-Light" font-size="36.0" fill="#FEFFFF" transform="matrix(1.00, 0.00, -0.00, -1.00, 293.0, 477.0)">A</text><text xml:space="preserve" font-family="Helvetica-Light" font-size="36.0" fill="#FEFFFF" transform="matrix(1.00, 0.00, -0.00, -1.00, 317.0, 477.0)">N</text><text xml:space="preserve" font-family="Helvetica-Light" font-size="36.0" fill="#FEFFFF" transform="matrix(1.00, 0.00, -0.00, -1.00, 343.0, 477.0)">S</text><text xml:space="preserve" font-family="Helvetica-Light" font-size="36.0" fill="#FEFFFF" transform="matrix(1.00, 0.00, -0.00, -1.00, 365.0, 477.0)">F</text><text xml:space="preserve" font-family="Helvetica-Light" font-size="36.0" fill="#FEFFFF" transform="matrix(1.00, 0.00, -0.00, -1.00, 385.0, 477.0)">O</text><text xml:space="preserve" font-family="Helvetica-Light" font-size="36.0" fill="#FEFFFF" transform="matrix(1.00, 0.00, -0.00, -1.00, 413.1, 477.0)">R</text><text xml:space="preserve" font-family="Helvetica-Light" font-size="36.0" fill="#FEFFFF" transform="matrix(1.00, 0.00, -0.00, -1.00, 437.1, 477.0)">M</text><text xml:space="preserve" font-family="Helvetica-Light" font-size="36.0" fill="#FEFFFF" transform="matrix(1.00, 0.00, -0.00, -1.00, 467.1, 477.0)"> </text><text xml:space="preserve" font-family="Helvetica-Light" font-size="36.0" fill="#FEFFFF" transform="matrix(1.00, 0.00, -0.00, -1.00, 477.1, 477.0)">Y</text><text xml:space="preserve" font-family="Helvetica-Light" font-size="36.0" fill="#FEFFFF" transform="matrix(1.00, 0.00, -0.00, -1.00, 499.1, 477.0)">O</text><text xml:space="preserve" font-family="Helvetica-Light" font-size="36.0" fill="#FEFFFF" transform="matrix(1.00, 0.00, -0.00, -1.00, 527.1, 477.0)">U</text><text xml:space="preserve" font-family="Helvetica-Light" font-size="36.0" fill="#FEFFFF" transform="matrix(1.00, 0.00, -0.00, -1.00, 553.1, 477.0)">R</text><text xml:space="preserve" font-family="Helvetica-Light" font-size="36.0" fill="#FEFFFF" transform="matrix(1.00, 0.00, -0.00, -1.00, 577.1, 477.0)"> </text><text xml:space="preserve" font-family="Helvetica-Light" font-size="36.0" fill="#FEFFFF" transform="matrix(1.00, 0.00, -0.00, -1.00, 587.1, 477.0)">J</text><text xml:space="preserve" font-family="Helvetica-Light" font-size="36.0" fill="#FEFFFF" transform="matrix(1.00, 0.00, -0.00, -1.00, 605.1, 477.0)">A</text><text xml:space="preserve" font-family="Helvetica-Light" font-size="36.0" fill="#FEFFFF" transform="matrix(1.00, 0.00, -0.00, -1.00, 626.4, 477.0)">V</text><text xml:space="preserve" font-family="Helvetica-Light" font-size="36.0" fill="#FEFFFF" transform="matrix(1.00, 0.00, -0.00, -1.00, 645.8, 477.0)">A</text><text xml:space="preserve" font-family="Helvetica-Light" font-size="36.0" fill="#FEFFFF" transform="matrix(1.00, 0.00, -0.00, -1.00, 669.8, 477.0)"> </text><text xml:space="preserve" font-family="Helvetica-Light" font-size="36.0" fill="#FEFFFF" transform="matrix(1.00, 0.00, -0.00, -1.00, 679.8, 477.0)">T</text><text xml:space="preserve" font-family="Helvetica-Light" font-size="36.0" fill="#FEFFFF" transform="matrix(1.00, 0.00, -0.00, -1.00, 699.8, 477.0)">E</text><text xml:space="preserve" font-family="Helvetica-Light" font-size="36.0" fill="#FEFFFF" transform="matrix(1.00, 0.00, -0.00, -1.00, 721.8, 477.0)">A</text><text xml:space="preserve" font-family="Helvetica-Light" font-size="36.0" fill="#FEFFFF" transform="matrix(1.00, 0.00, -0.00, -1.00, 745.8, 477.0)">M</text><text xml:space="preserve" font-family="Helvetica-Light" font-size="36.0" fill="#FEFFFF" transform="matrix(1.00, 0.00, -0.00, -1.00, 775.8, 477.0)"> </text><text xml:space="preserve" font-family="Helvetica-LightOblique" font-style="italic" font-size="36.0" fill="#FEFFFF" transform="matrix(1.00, 0.00, -0.00, -1.00, 341.0, 434.0)">(</text><text xml:space="preserve" font-family="Helvetica-LightOblique" font-style="italic" font-size="36.0" fill="#FEFFFF" transform="matrix(1.00, 0.00, -0.00, -1.00, 353.0, 434.0)">F</text><text xml:space="preserve" font-family="Helvetica-LightOblique" font-style="italic" font-size="36.0" fill="#FEFFFF" transform="matrix(1.00, 0.00, -0.00, -1.00, 373.0, 434.0)">R</text><text xml:space="preserve" font-family="Helvetica-LightOblique" font-style="italic" font-size="36.0" fill="#FEFFFF" transform="matrix(1.00, 0.00, -0.00, -1.00, 397.0, 434.0)">O</text><text xml:space="preserve" font-family="Helvetica-LightOblique" font-style="italic" font-size="36.0" fill="#FEFFFF" transform="matrix(1.00, 0.00, -0.00, -1.00, 425.0, 434.0)">M</text><text xml:space="preserve" font-family="Helvetica-LightOblique" font-style="italic" font-size="36.0" fill="#FEFFFF" transform="matrix(1.00, 0.00, -0.00, -1.00, 455.0, 434.0)"> </text><text xml:space="preserve" font-family="Helvetica-LightOblique" font-style="italic" font-size="36.0" fill="#FEFFFF" transform="matrix(1.00, 0.00, -0.00, -1.00, 465.0, 434.0)">T</text><text xml:space="preserve" font-family="Helvetica-LightOblique" font-style="italic" font-size="36.0" fill="#FEFFFF" transform="matrix(1.00, 0.00, -0.00, -1.00, 485.0, 434.0)">H</text><text xml:space="preserve" font-family="Helvetica-LightOblique" font-style="italic" font-size="36.0" fill="#FEFFFF" transform="matrix(1.00, 0.00, -0.00, -1.00, 511.0, 434.0)">E</text><text xml:space="preserve" font-family="Helvetica-LightOblique" font-style="italic" font-size="36.0" fill="#FEFFFF" transform="matrix(1.00, 0.00, -0.00, -1.00, 533.0, 434.0)"> </text><text xml:space="preserve" font-family="Helvetica-LightOblique" font-style="italic" font-size="36.0" fill="#FEFFFF" transform="matrix(1.00, 0.00, -0.00, -1.00, 543.0, 434.0)">I</text><text xml:space="preserve" font-family="Helvetica-LightOblique" font-style="italic" font-size="36.0" fill="#FEFFFF" transform="matrix(1.00, 0.00, -0.00, -1.00, 553.0, 434.0)">N</text><text xml:space="preserve" font-family="Helvetica-LightOblique" font-style="italic" font-size="36.0" fill="#FEFFFF" transform="matrix(1.00, 0.00, -0.00, -1.00, 579.0, 434.0)">S</text><text xml:space="preserve" font-family="Helvetica-LightOblique" font-style="italic" font-size="36.0" fill="#FEFFFF" transform="matrix(1.00, 0.00, -0.00, -1.00, 601.0, 434.0)">I</text><text xml:space="preserve" font-family="Helvetica-LightOblique" font-style="italic" font-size="36.0" fill="#FEFFFF" transform="matrix(1.00, 0.00, -0.00, -1.00, 611.0, 434.0)">D</text><text xml:space="preserve" font-family="Helvetica-LightOblique" font-style="italic" font-size="36.0" fill="#FEFFFF" transform="matrix(1.00, 0.00, -0.00, -1.00, 637.0, 434.0)">E</text><text xml:space="preserve" font-family="Helvetica-LightOblique" font-style="italic" font-size="36.0" fill="#FEFFFF" transform="matrix(1.00, 0.00, -0.00, -1.00, 659.0, 434.0)">!</text><text xml:space="preserve" font-family="Helvetica-LightOblique" font-style="italic" font-size="36.0" fill="#FEFFFF" transform="matrix(1.00, 0.00, -0.00, -1.00, 671.0, 434.0)">)</text><text xml:space="preserve" font-family="Helvetica-LightOblique" font-style="italic" font-size="36.0" fill="#FEFFFF" transform="matrix(1.00, 0.00, -0.00, -1.00, 683.0, 434.0)"> </text><text xml:space="preserve" font-family="Helvetica-Light" font-size="36.0" fill="#FEFFFF" transform="matrix(1.00, 0.00, -0.00, -1.00, 387.0, 391.0)">W</text><text xml:space="preserve" font-family="Helvetica-Light" font-size="36.0" fill="#FEFFFF" transform="matrix(1.00, 0.00, -0.00, -1.00, 419.0, 391.0)">I</text><text xml:space="preserve" font-family="Helvetica-Light" font-size="36.0" fill="#FEFFFF" transform="matrix(1.00, 0.00, -0.00, -1.00, 429.0, 391.0)">T</text><text xml:space="preserve" font-family="Helvetica-Light" font-size="36.0" fill="#FEFFFF" transform="matrix(1.00, 0.00, -0.00, -1.00, 449.0, 391.0)">H</text><text xml:space="preserve" font-family="Helvetica-Light" font-size="36.0" fill="#FEFFFF" transform="matrix(1.00, 0.00, -0.00, -1.00, 475.0, 391.0)"> </text><text xml:space="preserve" font-family="Helvetica-Light" font-size="36.0" fill="#FEFFFF" transform="matrix(1.00, 0.00, -0.00, -1.00, 485.0, 391.0)">G</text><text xml:space="preserve" font-family="Helvetica-Light" font-size="36.0" fill="#FEFFFF" transform="matrix(1.00, 0.00, -0.00, -1.00, 513.0, 391.0)">R</text><text xml:space="preserve" font-family="Helvetica-Light" font-size="36.0" fill="#FEFFFF" transform="matrix(1.00, 0.00, -0.00, -1.00, 537.0, 391.0)">O</text><text xml:space="preserve" font-family="Helvetica-Light" font-size="36.0" fill="#FEFFFF" transform="matrix(1.00, 0.00, -0.00, -1.00, 565.1, 391.0)">O</text><text xml:space="preserve" font-family="Helvetica-Light" font-size="36.0" fill="#FEFFFF" transform="matrix(1.00, 0.00, -0.00, -1.00, 593.1, 391.0)">V</text><text xml:space="preserve" font-family="Helvetica-Light" font-size="36.0" fill="#FEFFFF" transform="matrix(1.00, 0.00, -0.00, -1.00, 615.1, 391.0)">Y</text><text xml:space="preserve" font-family="Helvetica-Light" font-size="22.7" fill="#FEFFFF" transform="matrix(1.00, 0.00, -0.00, -1.00, 375.0, 261.0)">M</text><text xml:space="preserve" font-family="Helvetica-Light" font-size="22.7" fill="#FEFFFF" transform="matrix(1.00, 0.00, -0.00, -1.00, 393.9, 261.0)">i</text><text xml:space="preserve" font-family="Helvetica-Light" font-size="22.7" fill="#FEFFFF" transform="matrix(1.00, 0.00, -0.00, -1.00, 399.0, 261.0)">c</text><text xml:space="preserve" font-family="Helvetica-Light" font-size="22.7" fill="#FEFFFF" transform="matrix(1.00, 0.00, -0.00, -1.00, 411.6, 261.0)">h</text><text xml:space="preserve" font-family="Helvetica-Light" font-size="22.7" fill="#FEFFFF" transform="matrix(1.00, 0.00, -0.00, -1.00, 424.2, 261.0)">a</text><text xml:space="preserve" font-family="Helvetica-Light" font-size="22.7" fill="#FEFFFF" transform="matrix(1.00, 0.00, -0.00, -1.00, 436.9, 261.0)">e</text><text xml:space="preserve" font-family="Helvetica-Light" font-size="22.7" fill="#FEFFFF" transform="matrix(1.00, 0.00, -0.00, -1.00, 449.5, 261.0)">l</text><text xml:space="preserve" font-family="Helvetica-Light" font-size="22.7" fill="#FEFFFF" transform="matrix(1.00, 0.00, -0.00, -1.00, 454.5, 261.0)"> </text><text xml:space="preserve" font-family="Helvetica-Light" font-size="22.7" fill="#FEFFFF" transform="matrix(1.00, 0.00, -0.00, -1.00, 460.9, 261.0)">E</text><text xml:space="preserve" font-family="Helvetica-Light" font-size="22.7" fill="#FEFFFF" transform="matrix(1.00, 0.00, -0.00, -1.00, 474.7, 261.0)">a</text><text xml:space="preserve" font-family="Helvetica-Light" font-size="22.7" fill="#FEFFFF" transform="matrix(1.00, 0.00, -0.00, -1.00, 487.4, 261.0)">s</text><text xml:space="preserve" font-family="Helvetica-Light" font-size="22.7" fill="#FEFFFF" transform="matrix(1.00, 0.00, -0.00, -1.00, 498.7, 261.0)">t</text><text xml:space="preserve" font-family="Helvetica-Light" font-size="22.7" fill="#FEFFFF" transform="matrix(1.00, 0.00, -0.00, -1.00, 505.0, 261.0)">e</text><text xml:space="preserve" font-family="Helvetica-Light" font-size="22.7" fill="#FEFFFF" transform="matrix(1.00, 0.00, -0.00, -1.00, 517.7, 261.0)">r</text><text xml:space="preserve" font-family="Helvetica-Light" font-size="22.7" fill="#FEFFFF" transform="matrix(1.00, 0.00, -0.00, -1.00, 525.2, 261.0)"> </text><text xml:space="preserve" font-family="Helvetica-Light" font-size="22.7" fill="#FEFFFF" transform="matrix(1.00, 0.00, -0.00, -1.00, 531.6, 261.0)">@</text><text xml:space="preserve" font-family="Helvetica-Light" font-size="22.7" fill="#FEFFFF" transform="matrix(1.00, 0.00, -0.00, -1.00, 549.7, 261.0)">c</text><text xml:space="preserve" font-family="Helvetica-Light" font-size="22.7" fill="#FEFFFF" transform="matrix(1.00, 0.00, -0.00, -1.00, 562.4, 261.0)">o</text><text xml:space="preserve" font-family="Helvetica-Light" font-size="22.7" fill="#FEFFFF" transform="matrix(1.00, 0.00, -0.00, -1.00, 575.0, 261.0)">d</text><text xml:space="preserve" font-family="Helvetica-Light" font-size="22.7" fill="#FEFFFF" transform="matrix(1.00, 0.00, -0.00, -1.00, 588.9, 261.0)">e</text><text xml:space="preserve" font-family="Helvetica-Light" font-size="22.7" fill="#FEFFFF" transform="matrix(1.00, 0.00, -0.00, -1.00, 601.5, 261.0)">t</text><text xml:space="preserve" font-family="Helvetica-Light" font-size="22.7" fill="#FEFFFF" transform="matrix(1.00, 0.00, -0.00, -1.00, 607.8, 261.0)">o</text><text xml:space="preserve" font-family="Helvetica-Light" font-size="22.7" fill="#FEFFFF" transform="matrix(1.00, 0.00, -0.00, -1.00, 620.5, 261.0)">j</text><text xml:space="preserve" font-family="Helvetica-Light" font-size="22.7" fill="#FEFFFF" transform="matrix(1.00, 0.00, -0.00, -1.00, 625.5, 261.0)">o</text><text xml:space="preserve" font-family="Helvetica-Light" font-size="22.7" fill="#FEFFFF" transform="matrix(1.00, 0.00, -0.00, -1.00, 638.1, 261.0)">y</text><text xml:space="preserve" font-family="Helvetica-Light" font-size="22.7" fill="#FEFFFF" transform="matrix(1.00, 0.00, -0.00, -1.00, 649.5, 261.0)"> </text><text xml:space="preserve" font-family="Helvetica-Light" font-size="22.7" fill="#FEFFFF" transform="matrix(1.00, 0.00, -0.00, -1.00, 393.0, 235.0)">M</text><text xml:space="preserve" font-family="Helvetica-Light" font-size="22.7" fill="#FEFFFF" transform="matrix(1.00, 0.00, -0.00, -1.00, 411.9, 235.0)">a</text><text xml:space="preserve" font-family="Helvetica-Light" font-size="22.7" fill="#FEFFFF" transform="matrix(1.00, 0.00, -0.00, -1.00, 424.6, 235.0)">r</text><text xml:space="preserve" font-family="Helvetica-Light" font-size="22.7" fill="#FEFFFF" transform="matrix(1.00, 0.00, -0.00, -1.00, 432.1, 235.0)">i</text><text xml:space="preserve" font-family="Helvetica-Light" font-size="22.7" fill="#FEFFFF" transform="matrix(1.00, 0.00, -0.00, -1.00, 437.2, 235.0)">t</text><text xml:space="preserve" font-family="Helvetica-Light" font-size="22.7" fill="#FEFFFF" transform="matrix(1.00, 0.00, -0.00, -1.00, 443.5, 235.0)">i</text><text xml:space="preserve" font-family="Helvetica-Light" font-size="22.7" fill="#FEFFFF" transform="matrix(1.00, 0.00, -0.00, -1.00, 448.5, 235.0)">m</text><text xml:space="preserve" font-family="Helvetica-Light" font-size="22.7" fill="#FEFFFF" transform="matrix(1.00, 0.00, -0.00, -1.00, 467.5, 235.0)">e</text><text xml:space="preserve" font-family="Helvetica-Light" font-size="22.7" fill="#FEFFFF" transform="matrix(1.00, 0.00, -0.00, -1.00, 480.1, 235.0)"> </text><text xml:space="preserve" font-family="Helvetica-Light" font-size="22.7" fill="#FEFFFF" transform="matrix(1.00, 0.00, -0.00, -1.00, 486.4, 235.0)">D</text><text xml:space="preserve" font-family="Helvetica-Light" font-size="22.7" fill="#FEFFFF" transform="matrix(1.00, 0.00, -0.00, -1.00, 502.8, 235.0)">e</text><text xml:space="preserve" font-family="Helvetica-Light" font-size="22.7" fill="#FEFFFF" transform="matrix(1.00, 0.00, -0.00, -1.00, 515.4, 235.0)">v</text><text xml:space="preserve" font-family="Helvetica-Light" font-size="22.7" fill="#FEFFFF" transform="matrix(1.00, 0.00, -0.00, -1.00, 526.8, 235.0)"> </text><text xml:space="preserve" font-family="Helvetica-Light" font-size="22.7" fill="#FEFFFF" transform="matrix(1.00, 0.00, -0.00, -1.00, 533.1, 235.0)">C</text><text xml:space="preserve" font-family="Helvetica-Light" font-size="22.7" fill="#FEFFFF" transform="matrix(1.00, 0.00, -0.00, -1.00, 549.5, 235.0)">o</text><text xml:space="preserve" font-family="Helvetica-Light" font-size="22.7" fill="#FEFFFF" transform="matrix(1.00, 0.00, -0.00, -1.00, 562.2, 235.0)">n</text><text xml:space="preserve" font-family="Helvetica-Light" font-size="22.7" fill="#FEFFFF" transform="matrix(1.00, 0.00, -0.00, -1.00, 574.8, 235.0)"> </text><text xml:space="preserve" font-family="Helvetica-Light" font-size="22.7" fill="#FEFFFF" transform="matrix(1.00, 0.00, -0.00, -1.00, 581.1, 235.0)">2</text><text xml:space="preserve" font-family="Helvetica-Light" font-size="22.7" fill="#FEFFFF" transform="matrix(1.00, 0.00, -0.00, -1.00, 593.7, 235.0)">0</text><text xml:space="preserve" font-family="Helvetica-Light" font-size="22.7" fill="#FEFFFF" transform="matrix(1.00, 0.00, -0.00, -1.00, 606.4, 235.0)">1</text><text xml:space="preserve" font-family="Helvetica-Light" font-size="22.7" fill="#FEFFFF" transform="matrix(1.00, 0.00, -0.00, -1.00, 619.0, 235.0)">6</text><text xml:space="preserve" font-family="Helvetica-Light" font-size="22.7" fill="#FEFFFF" transform="matrix(1.00, 0.00, -0.00, -1.00, 631.6, 235.0)"> </text></g></svg>