<?xml version="1.0" encoding="UTF-8" standalone="no"?><svg xmlns="http://www.w3.org/2000/svg" xmlns:xlink="http://www.w3.org/1999/xlink" clip-rule="evenodd" stroke-miterlimit="4.00" viewBox="0 0 1024 768"><desc>SVG generated by Keynote</desc><defs><linearGradient id="gradSh1.59" x1="0.0" y1="0.0" x2="100.0" y2="0.0" gradientUnits="userSpaceOnUse" gradientTransform="matrix(0.00, -1.02, -6.16, 0.00, 512.0, 478.0)"><stop offset="0.00000" stop-color="#A6AAA8"></stop><stop offset="0.00806" stop-color="#A6A9A8"></stop><stop offset="0.46628" stop-color="#7F8486"></stop><stop offset="0.46994" stop-color="#7F8386"></stop><stop offset="0.55865" stop-color="#787C7F"></stop><stop offset="0.56232" stop-color="#777C7F"></stop><stop offset="1.00000" stop-color="#53585F"></stop></linearGradient></defs><g transform="matrix(1.00, 0.00, -0.00, -1.00, 0.0, 768.0)"><g><clipPath id="clip-155"><path d="M 0.0 768.0 L 1024.0 768.0 L 1024.0 0.0 L 0.0 0.0 Z M 0.0 768.0 "></path></clipPath><g clip-path="url(#clip-155)"><image xlink:href="../../30B7321D-9918-41AC-AA51-AB2EAA3DCF6E/assets/C58B69C55A3E82F4B831EE06AE03AE34.jpeg" width="1024.00" height="768.00" transform="matrix(1.00, 0.00, -0.00, -1.00, 0.0, 768.0)"></image></g></g><image xlink:href="../../EB0BB717-ECEC-42D9-8CB5-9C8CC4644984/assets/A23D4A6D98545D90395133784429610A.png" width="626.00" height="112.00" transform="matrix(1.00, 0.00, -0.00, -1.00, 199.0, 483.0)" opacity="0.80"></image><g><clipPath id="clip-156"><path d="M 227.9 477.0 L 796.1 477.0 C 802.6 477.0 806.0 477.0 809.5 475.9 C 813.4 474.5 816.5 471.4 817.9 467.5 C 819.0 464.0 819.0 460.6 819.0 454.0 L 819.0 399.9 C 819.0 393.4 819.0 390.0 817.9 386.5 C 816.5 382.6 813.4 379.5 809.5 378.1 C 806.0 377.0 802.6 377.0 796.0 377.0 L 227.9 377.0 C 221.4 377.0 218.0 377.0 214.5 378.1 C 210.6 379.5 207.5 382.6 206.1 386.5 C 205.0 390.0 205.0 393.4 205.0 400.0 L 205.0 454.1 C 205.0 460.6 205.0 464.0 206.1 467.5 C 207.5 471.4 210.6 474.5 214.5 475.9 C 218.0 477.0 221.4 477.0 228.0 477.0 Z M 227.9 477.0 "></path></clipPath><g clip-path="url(#clip-156)"><path d="M 227.9 477.0 L 796.1 477.0 C 802.6 477.0 806.0 477.0 809.5 475.9 C 813.4 474.5 816.5 471.4 817.9 467.5 C 819.0 464.0 819.0 460.6 819.0 454.0 L 819.0 399.9 C 819.0 393.4 819.0 390.0 817.9 386.5 C 816.5 382.6 813.4 379.5 809.5 378.1 C 806.0 377.0 802.6 377.0 796.0 377.0 L 227.9 377.0 C 221.4 377.0 218.0 377.0 214.5 378.1 C 210.6 379.5 207.5 382.6 206.1 386.5 C 205.0 390.0 205.0 393.4 205.0 400.0 L 205.0 454.1 C 205.0 460.6 205.0 464.0 206.1 467.5 C 207.5 471.4 210.6 474.5 214.5 475.9 C 218.0 477.0 221.4 477.0 228.0 477.0 Z M 227.9 477.0 " fill="url(#gradSh1.59)"></path></g></g><text xml:space="preserve" font-family="Monaco" font-size="38.0" fill="#FEFFFF" transform="matrix(1.00, 0.00, -0.00, -1.00, 364.0, 413.0)">A</text><text xml:space="preserve" font-family="Monaco" font-size="38.0" fill="#FEFFFF" transform="matrix(1.00, 0.00, -0.00, -1.00, 386.8, 413.0)">p</text><text xml:space="preserve" font-family="Monaco" font-size="38.0" fill="#FEFFFF" transform="matrix(1.00, 0.00, -0.00, -1.00, 409.6, 413.0)">a</text><text xml:space="preserve" font-family="Monaco" font-size="38.0" fill="#FEFFFF" transform="matrix(1.00, 0.00, -0.00, -1.00, 432.4, 413.0)">c</text><text xml:space="preserve" font-family="Monaco" font-size="38.0" fill="#FEFFFF" transform="matrix(1.00, 0.00, -0.00, -1.00, 455.2, 413.0)">h</text><text xml:space="preserve" font-family="Monaco" font-size="38.0" fill="#FEFFFF" transform="matrix(1.00, 0.00, -0.00, -1.00, 478.0, 413.0)">e</text><text xml:space="preserve" font-family="Monaco" font-size="38.0" fill="#FEFFFF" transform="matrix(1.00, 0.00, -0.00, -1.00, 500.8, 413.0)"> </text><text xml:space="preserve" font-family="Monaco" font-size="38.0" fill="#FEFFFF" transform="matrix(1.00, 0.00, -0.00, -1.00, 523.7, 413.0)">G</text><text xml:space="preserve" font-family="Monaco" font-size="38.0" fill="#FEFFFF" transform="matrix(1.00, 0.00, -0.00, -1.00, 546.5, 413.0)">r</text><text xml:space="preserve" font-family="Monaco" font-size="38.0" fill="#FEFFFF" transform="matrix(1.00, 0.00, -0.00, -1.00, 569.3, 413.0)">o</text><text xml:space="preserve" font-family="Monaco" font-size="38.0" fill="#FEFFFF" transform="matrix(1.00, 0.00, -0.00, -1.00, 592.1, 413.0)">o</text><text xml:space="preserve" font-family="Monaco" font-size="38.0" fill="#FEFFFF" transform="matrix(1.00, 0.00, -0.00, -1.00, 614.9, 413.0)">v</text><text xml:space="preserve" font-family="Monaco" font-size="38.0" fill="#FEFFFF" transform="matrix(1.00, 0.00, -0.00, -1.00, 637.7, 413.0)">y</text><text xml:space="preserve" font-family="Helvetica-Bold" font-weight="bold" font-size="46.0" fill="#FEFFFF" transform="matrix(1.00, 0.00, -0.00, -1.00, 368.0, 606.0)">C</text><text xml:space="preserve" font-family="Helvetica-Bold" font-weight="bold" font-size="46.0" fill="#FEFFFF" transform="matrix(1.00, 0.00, -0.00, -1.00, 401.2, 606.0)">o</text><text xml:space="preserve" font-family="Helvetica-Bold" font-weight="bold" font-size="46.0" fill="#FEFFFF" transform="matrix(1.00, 0.00, -0.00, -1.00, 429.3, 606.0)">u</text><text xml:space="preserve" font-family="Helvetica-Bold" font-weight="bold" font-size="46.0" fill="#FEFFFF" transform="matrix(1.00, 0.00, -0.00, -1.00, 457.4, 606.0)">n</text><text xml:space="preserve" font-family="Helvetica-Bold" font-weight="bold" font-size="46.0" fill="#FEFFFF" transform="matrix(1.00, 0.00, -0.00, -1.00, 485.5, 606.0)">t</text><text xml:space="preserve" font-family="Helvetica-Bold" font-weight="bold" font-size="46.0" fill="#FEFFFF" transform="matrix(1.00, 0.00, -0.00, -1.00, 500.8, 606.0)">e</text><text xml:space="preserve" font-family="Helvetica-Bold" font-weight="bold" font-size="46.0" fill="#FEFFFF" transform="matrix(1.00, 0.00, -0.00, -1.00, 526.4, 606.0)">r</text><text xml:space="preserve" font-family="Helvetica-Bold" font-weight="bold" font-size="46.0" fill="#FEFFFF" transform="matrix(1.00, 0.00, -0.00, -1.00, 544.3, 606.0)">p</text><text xml:space="preserve" font-family="Helvetica-Bold" font-weight="bold" font-size="46.0" fill="#FEFFFF" transform="matrix(1.00, 0.00, -0.00, -1.00, 572.4, 606.0)">o</text><text xml:space="preserve" font-family="Helvetica-Bold" font-weight="bold" font-size="46.0" fill="#FEFFFF" transform="matrix(1.00, 0.00, -0.00, -1.00, 600.5, 606.0)">i</text><text xml:space="preserve" font-family="Helvetica-Bold" font-weight="bold" font-size="46.0" fill="#FEFFFF" transform="matrix(1.00, 0.00, -0.00, -1.00, 613.3, 606.0)">n</text><text xml:space="preserve" font-family="Helvetica-Bold" font-weight="bold" font-size="46.0" fill="#FEFFFF" transform="matrix(1.00, 0.00, -0.00, -1.00, 641.4, 606.0)">t</text></g></svg>