<?xml version="1.0" encoding="UTF-8" standalone="no"?><svg xmlns="http://www.w3.org/2000/svg" xmlns:xlink="http://www.w3.org/1999/xlink" clip-rule="evenodd" stroke-miterlimit="4.00" viewBox="0 0 1024 768"><desc>SVG generated by Keynote</desc><defs></defs><g transform="matrix(1.00, 0.00, -0.00, -1.00, 0.0, 768.0)"><g><clipPath id="clip-69"><path d="M 0.0 768.0 L 1024.0 768.0 L 1024.0 0.0 L 0.0 0.0 Z M 0.0 768.0 "></path></clipPath><g clip-path="url(#clip-69)"><image xlink:href="../../30B7321D-9918-41AC-AA51-AB2EAA3DCF6E/assets/C58B69C55A3E82F4B831EE06AE03AE34.jpeg" width="1024.00" height="768.00" transform="matrix(1.00, 0.00, -0.00, -1.00, 0.0, 768.0)"></image></g></g><text xml:space="preserve" font-family="Helvetica-Light" font-size="40.0" fill="#FEFFFE" transform="matrix(1.00, 0.00, -0.00, -1.00, 398.0, 390.0)">J</text><text xml:space="preserve" font-family="Helvetica-Light" font-size="40.0" fill="#FEFFFE" transform="matrix(1.00, 0.00, -0.00, -1.00, 418.0, 390.0)">u</text><text xml:space="preserve" font-family="Helvetica-Light" font-size="40.0" fill="#FEFFFE" transform="matrix(1.00, 0.00, -0.00, -1.00, 440.2, 390.0)">s</text><text xml:space="preserve" font-family="Helvetica-Light" font-size="40.0" fill="#FEFFFE" transform="matrix(1.00, 0.00, -0.00, -1.00, 460.2, 390.0)">t</text><text xml:space="preserve" font-family="Helvetica-Light" font-size="40.0" fill="#FEFFFE" transform="matrix(1.00, 0.00, -0.00, -1.00, 471.4, 390.0)"> </text><text xml:space="preserve" font-family="Helvetica-Light" font-size="40.0" fill="#FEFFFE" transform="matrix(1.00, 0.00, -0.00, -1.00, 482.5, 390.0)">k</text><text xml:space="preserve" font-family="Helvetica-Light" font-size="40.0" fill="#FEFFFE" transform="matrix(1.00, 0.00, -0.00, -1.00, 502.5, 390.0)">i</text><text xml:space="preserve" font-family="Helvetica-Light" font-size="40.0" fill="#FEFFFE" transform="matrix(1.00, 0.00, -0.00, -1.00, 511.4, 390.0)">d</text><text xml:space="preserve" font-family="Helvetica-Light" font-size="40.0" fill="#FEFFFE" transform="matrix(1.00, 0.00, -0.00, -1.00, 535.8, 390.0)">d</text><text xml:space="preserve" font-family="Helvetica-Light" font-size="40.0" fill="#FEFFFE" transform="matrix(1.00, 0.00, -0.00, -1.00, 560.2, 390.0)">i</text><text xml:space="preserve" font-family="Helvetica-Light" font-size="40.0" fill="#FEFFFE" transform="matrix(1.00, 0.00, -0.00, -1.00, 569.1, 390.0)">n</text><text xml:space="preserve" font-family="Helvetica-Light" font-size="40.0" fill="#FEFFFE" transform="matrix(1.00, 0.00, -0.00, -1.00, 591.4, 390.0)">g</text><text xml:space="preserve" font-family="Helvetica-Light" font-size="40.0" fill="#FEFFFE" transform="matrix(1.00, 0.00, -0.00, -1.00, 615.8, 390.0)">.</text><text xml:space="preserve" font-family="Helvetica-Light" font-size="40.0" fill="#FEFFFE" transform="matrix(1.00, 0.00, -0.00, -1.00, 626.9, 390.0)"> </text><text xml:space="preserve" font-family="Helvetica-Light" font-size="40.0" fill="#FEFFFE" transform="matrix(1.00, 0.00, -0.00, -1.00, 117.0, 318.0)">I</text><text xml:space="preserve" font-family="Helvetica-Light" font-size="40.0" fill="#FEFFFE" transform="matrix(1.00, 0.00, -0.00, -1.00, 128.1, 318.0)"> </text><text xml:space="preserve" font-family="Helvetica-Light" font-size="40.0" fill="#FEFFFE" transform="matrix(1.00, 0.00, -0.00, -1.00, 139.2, 318.0)">l</text><text xml:space="preserve" font-family="Helvetica-Light" font-size="40.0" fill="#FEFFFE" transform="matrix(1.00, 0.00, -0.00, -1.00, 148.1, 318.0)">o</text><text xml:space="preserve" font-family="Helvetica-Light" font-size="40.0" fill="#FEFFFE" transform="matrix(1.00, 0.00, -0.00, -1.00, 170.4, 318.0)">v</text><text xml:space="preserve" font-family="Helvetica-Light" font-size="40.0" fill="#FEFFFE" transform="matrix(1.00, 0.00, -0.00, -1.00, 190.4, 318.0)">e</text><text xml:space="preserve" font-family="Helvetica-Light" font-size="40.0" fill="#FEFFFE" transform="matrix(1.00, 0.00, -0.00, -1.00, 212.6, 318.0)"> </text><text xml:space="preserve" font-family="Helvetica-Light" font-size="40.0" fill="#FEFFFE" transform="matrix(1.00, 0.00, -0.00, -1.00, 223.7, 318.0)">C</text><text xml:space="preserve" font-family="Helvetica-Light" font-size="40.0" fill="#FEFFFE" transform="matrix(1.00, 0.00, -0.00, -1.00, 252.6, 318.0)">l</text><text xml:space="preserve" font-family="Helvetica-Light" font-size="40.0" fill="#FEFFFE" transform="matrix(1.00, 0.00, -0.00, -1.00, 261.5, 318.0)">o</text><text xml:space="preserve" font-family="Helvetica-Light" font-size="40.0" fill="#FEFFFE" transform="matrix(1.00, 0.00, -0.00, -1.00, 283.7, 318.0)">j</text><text xml:space="preserve" font-family="Helvetica-Light" font-size="40.0" fill="#FEFFFE" transform="matrix(1.00, 0.00, -0.00, -1.00, 292.6, 318.0)">u</text><text xml:space="preserve" font-family="Helvetica-Light" font-size="40.0" fill="#FEFFFE" transform="matrix(1.00, 0.00, -0.00, -1.00, 314.8, 318.0)">r</text><text xml:space="preserve" font-family="Helvetica-Light" font-size="40.0" fill="#FEFFFE" transform="matrix(1.00, 0.00, -0.00, -1.00, 327.4, 318.0)">e</text><text xml:space="preserve" font-family="Helvetica-Light" font-size="40.0" fill="#FEFFFE" transform="matrix(1.00, 0.00, -0.00, -1.00, 349.7, 318.0)">.</text><text xml:space="preserve" font-family="Helvetica-Light" font-size="40.0" fill="#FEFFFE" transform="matrix(1.00, 0.00, -0.00, -1.00, 360.8, 318.0)"> </text><text xml:space="preserve" font-family="Helvetica-Light" font-size="40.0" fill="#FEFFFE" transform="matrix(1.00, 0.00, -0.00, -1.00, 371.9, 318.0)">Y</text><text xml:space="preserve" font-family="Helvetica-Light" font-size="40.0" fill="#FEFFFE" transform="matrix(1.00, 0.00, -0.00, -1.00, 392.7, 318.0)">o</text><text xml:space="preserve" font-family="Helvetica-Light" font-size="40.0" fill="#FEFFFE" transform="matrix(1.00, 0.00, -0.00, -1.00, 414.9, 318.0)">u</text><text xml:space="preserve" font-family="Helvetica-Light" font-size="40.0" fill="#FEFFFE" transform="matrix(1.00, 0.00, -0.00, -1.00, 437.2, 318.0)"> </text><text xml:space="preserve" font-family="Helvetica-Light" font-size="40.0" fill="#FEFFFE" transform="matrix(1.00, 0.00, -0.00, -1.00, 448.3, 318.0)">d</text><text xml:space="preserve" font-family="Helvetica-Light" font-size="40.0" fill="#FEFFFE" transform="matrix(1.00, 0.00, -0.00, -1.00, 472.7, 318.0)">o</text><text xml:space="preserve" font-family="Helvetica-Light" font-size="40.0" fill="#FEFFFE" transform="matrix(1.00, 0.00, -0.00, -1.00, 495.0, 318.0)">n</text><text xml:space="preserve" font-family="Helvetica-Light" font-size="40.0" fill="#FEFFFE" transform="matrix(1.00, 0.00, -0.00, -1.00, 517.2, 318.0)">’</text><text xml:space="preserve" font-family="Helvetica-Light" font-size="40.0" fill="#FEFFFE" transform="matrix(1.00, 0.00, -0.00, -1.00, 525.4, 318.0)">t</text><text xml:space="preserve" font-family="Helvetica-Light" font-size="40.0" fill="#FEFFFE" transform="matrix(1.00, 0.00, -0.00, -1.00, 536.5, 318.0)"> </text><text xml:space="preserve" font-family="Helvetica-Light" font-size="40.0" fill="#FEFFFE" transform="matrix(1.00, 0.00, -0.00, -1.00, 547.6, 318.0)">n</text><text xml:space="preserve" font-family="Helvetica-Light" font-size="40.0" fill="#FEFFFE" transform="matrix(1.00, 0.00, -0.00, -1.00, 569.8, 318.0)">e</text><text xml:space="preserve" font-family="Helvetica-Light" font-size="40.0" fill="#FEFFFE" transform="matrix(1.00, 0.00, -0.00, -1.00, 592.1, 318.0)">e</text><text xml:space="preserve" font-family="Helvetica-Light" font-size="40.0" fill="#FEFFFE" transform="matrix(1.00, 0.00, -0.00, -1.00, 614.3, 318.0)">d</text><text xml:space="preserve" font-family="Helvetica-Light" font-size="40.0" fill="#FEFFFE" transform="matrix(1.00, 0.00, -0.00, -1.00, 638.8, 318.0)"> </text><text xml:space="preserve" font-family="Helvetica-Light" font-size="40.0" fill="#FEFFFE" transform="matrix(1.00, 0.00, -0.00, -1.00, 649.9, 318.0)">t</text><text xml:space="preserve" font-family="Helvetica-Light" font-size="40.0" fill="#FEFFFE" transform="matrix(1.00, 0.00, -0.00, -1.00, 661.0, 318.0)">o</text><text xml:space="preserve" font-family="Helvetica-Light" font-size="40.0" fill="#FEFFFE" transform="matrix(1.00, 0.00, -0.00, -1.00, 683.2, 318.0)"> </text><text xml:space="preserve" font-family="Helvetica-Light" font-size="40.0" fill="#FEFFFE" transform="matrix(1.00, 0.00, -0.00, -1.00, 694.4, 318.0)">s</text><text xml:space="preserve" font-family="Helvetica-Light" font-size="40.0" fill="#FEFFFE" transform="matrix(1.00, 0.00, -0.00, -1.00, 714.4, 318.0)">e</text><text xml:space="preserve" font-family="Helvetica-Light" font-size="40.0" fill="#FEFFFE" transform="matrix(1.00, 0.00, -0.00, -1.00, 736.6, 318.0)">l</text><text xml:space="preserve" font-family="Helvetica-Light" font-size="40.0" fill="#FEFFFE" transform="matrix(1.00, 0.00, -0.00, -1.00, 745.5, 318.0)">l</text><text xml:space="preserve" font-family="Helvetica-Light" font-size="40.0" fill="#FEFFFE" transform="matrix(1.00, 0.00, -0.00, -1.00, 754.4, 318.0)"> </text><text xml:space="preserve" font-family="Helvetica-Light" font-size="40.0" fill="#FEFFFE" transform="matrix(1.00, 0.00, -0.00, -1.00, 765.5, 318.0)">i</text><text xml:space="preserve" font-family="Helvetica-Light" font-size="40.0" fill="#FEFFFE" transform="matrix(1.00, 0.00, -0.00, -1.00, 774.4, 318.0)">t</text><text xml:space="preserve" font-family="Helvetica-Light" font-size="40.0" fill="#FEFFFE" transform="matrix(1.00, 0.00, -0.00, -1.00, 785.5, 318.0)"> </text><text xml:space="preserve" font-family="Helvetica-Light" font-size="40.0" fill="#FEFFFE" transform="matrix(1.00, 0.00, -0.00, -1.00, 796.6, 318.0)">t</text><text xml:space="preserve" font-family="Helvetica-Light" font-size="40.0" fill="#FEFFFE" transform="matrix(1.00, 0.00, -0.00, -1.00, 807.7, 318.0)">o</text><text xml:space="preserve" font-family="Helvetica-Light" font-size="40.0" fill="#FEFFFE" transform="matrix(1.00, 0.00, -0.00, -1.00, 830.0, 318.0)"> </text><text xml:space="preserve" font-family="Helvetica-Light" font-size="40.0" fill="#FEFFFE" transform="matrix(1.00, 0.00, -0.00, -1.00, 841.1, 318.0)">m</text><text xml:space="preserve" font-family="Helvetica-Light" font-size="40.0" fill="#FEFFFE" transform="matrix(1.00, 0.00, -0.00, -1.00, 874.4, 318.0)">e</text><text xml:space="preserve" font-family="Helvetica-Light" font-size="40.0" fill="#FEFFFE" transform="matrix(1.00, 0.00, -0.00, -1.00, 896.6, 318.0)">.</text></g></svg>