<?xml version="1.0" encoding="UTF-8" standalone="no"?><svg xmlns="http://www.w3.org/2000/svg" xmlns:xlink="http://www.w3.org/1999/xlink" clip-rule="evenodd" stroke-miterlimit="4.00" viewBox="0 0 1024 768"><desc>SVG generated by Keynote</desc><defs></defs><g transform="matrix(1.00, 0.00, -0.00, -1.00, 0.0, 768.0)"><g><clipPath id="clip-81"><path d="M 0.0 768.0 L 1024.0 768.0 L 1024.0 0.0 L 0.0 0.0 Z M 0.0 768.0 "></path></clipPath><g clip-path="url(#clip-81)"><image xlink:href="../../30B7321D-9918-41AC-AA51-AB2EAA3DCF6E/assets/C58B69C55A3E82F4B831EE06AE03AE34.jpeg" width="1024.00" height="768.00" transform="matrix(1.00, 0.00, -0.00, -1.00, 0.0, 768.0)"></image></g></g><text xml:space="preserve" font-family="Helvetica-Light" font-size="40.0" fill="#FEFFFE" transform="matrix(1.00, 0.00, -0.00, -1.00, 214.0, 426.0)">T</text><text xml:space="preserve" font-family="Helvetica-Light" font-size="40.0" fill="#FEFFFE" transform="matrix(1.00, 0.00, -0.00, -1.00, 236.2, 426.0)">h</text><text xml:space="preserve" font-family="Helvetica-Light" font-size="40.0" fill="#FEFFFE" transform="matrix(1.00, 0.00, -0.00, -1.00, 258.5, 426.0)">a</text><text xml:space="preserve" font-family="Helvetica-Light" font-size="40.0" fill="#FEFFFE" transform="matrix(1.00, 0.00, -0.00, -1.00, 280.7, 426.0)">t</text><text xml:space="preserve" font-family="Helvetica-Light" font-size="40.0" fill="#FEFFFE" transform="matrix(1.00, 0.00, -0.00, -1.00, 291.8, 426.0)"> </text><text xml:space="preserve" font-family="Helvetica-Light" font-size="40.0" fill="#FEFFFE" transform="matrix(1.00, 0.00, -0.00, -1.00, 303.0, 426.0)">i</text><text xml:space="preserve" font-family="Helvetica-Light" font-size="40.0" fill="#FEFFFE" transform="matrix(1.00, 0.00, -0.00, -1.00, 311.8, 426.0)">s</text><text xml:space="preserve" font-family="Helvetica-Light" font-size="40.0" fill="#FEFFFE" transform="matrix(1.00, 0.00, -0.00, -1.00, 331.8, 426.0)">,</text><text xml:space="preserve" font-family="Helvetica-Light" font-size="40.0" fill="#FEFFFE" transform="matrix(1.00, 0.00, -0.00, -1.00, 343.0, 426.0)"> </text><text xml:space="preserve" font-family="Helvetica-Light" font-size="40.0" fill="#FEFFFE" transform="matrix(1.00, 0.00, -0.00, -1.00, 354.1, 426.0)">w</text><text xml:space="preserve" font-family="Helvetica-Light" font-size="40.0" fill="#FEFFFE" transform="matrix(1.00, 0.00, -0.00, -1.00, 383.0, 426.0)">e</text><text xml:space="preserve" font-family="Helvetica-Light" font-size="40.0" fill="#FEFFFE" transform="matrix(1.00, 0.00, -0.00, -1.00, 405.2, 426.0)"> </text><text xml:space="preserve" font-family="Helvetica-Light" font-size="40.0" fill="#FEFFFE" transform="matrix(1.00, 0.00, -0.00, -1.00, 416.3, 426.0)">n</text><text xml:space="preserve" font-family="Helvetica-Light" font-size="40.0" fill="#FEFFFE" transform="matrix(1.00, 0.00, -0.00, -1.00, 438.6, 426.0)">e</text><text xml:space="preserve" font-family="Helvetica-Light" font-size="40.0" fill="#FEFFFE" transform="matrix(1.00, 0.00, -0.00, -1.00, 460.8, 426.0)">e</text><text xml:space="preserve" font-family="Helvetica-Light" font-size="40.0" fill="#FEFFFE" transform="matrix(1.00, 0.00, -0.00, -1.00, 483.0, 426.0)">d</text><text xml:space="preserve" font-family="Helvetica-Light" font-size="40.0" fill="#FEFFFE" transform="matrix(1.00, 0.00, -0.00, -1.00, 507.5, 426.0)"> </text><text xml:space="preserve" font-family="Helvetica-Light" font-size="40.0" fill="#FEFFFE" transform="matrix(1.00, 0.00, -0.00, -1.00, 518.6, 426.0)">t</text><text xml:space="preserve" font-family="Helvetica-Light" font-size="40.0" fill="#FEFFFE" transform="matrix(1.00, 0.00, -0.00, -1.00, 529.7, 426.0)">o</text><text xml:space="preserve" font-family="Helvetica-Light" font-size="40.0" fill="#FEFFFE" transform="matrix(1.00, 0.00, -0.00, -1.00, 552.0, 426.0)"> </text><text xml:space="preserve" font-family="Helvetica-Light" font-size="40.0" fill="#FEFFFE" transform="matrix(1.00, 0.00, -0.00, -1.00, 563.1, 426.0)">e</text><text xml:space="preserve" font-family="Helvetica-Light" font-size="40.0" fill="#FEFFFE" transform="matrix(1.00, 0.00, -0.00, -1.00, 585.3, 426.0)">f</text><text xml:space="preserve" font-family="Helvetica-Light" font-size="40.0" fill="#FEFFFE" transform="matrix(1.00, 0.00, -0.00, -1.00, 595.7, 426.0)">f</text><text xml:space="preserve" font-family="Helvetica-Light" font-size="40.0" fill="#FEFFFE" transform="matrix(1.00, 0.00, -0.00, -1.00, 606.8, 426.0)">e</text><text xml:space="preserve" font-family="Helvetica-Light" font-size="40.0" fill="#FEFFFE" transform="matrix(1.00, 0.00, -0.00, -1.00, 629.1, 426.0)">c</text><text xml:space="preserve" font-family="Helvetica-Light" font-size="40.0" fill="#FEFFFE" transform="matrix(1.00, 0.00, -0.00, -1.00, 651.3, 426.0)">t</text><text xml:space="preserve" font-family="Helvetica-Light" font-size="40.0" fill="#FEFFFE" transform="matrix(1.00, 0.00, -0.00, -1.00, 662.4, 426.0)"> </text><text xml:space="preserve" font-family="Helvetica-Light" font-size="40.0" fill="#FEFFFE" transform="matrix(1.00, 0.00, -0.00, -1.00, 673.6, 426.0)">c</text><text xml:space="preserve" font-family="Helvetica-Light" font-size="40.0" fill="#FEFFFE" transform="matrix(1.00, 0.00, -0.00, -1.00, 695.8, 426.0)">h</text><text xml:space="preserve" font-family="Helvetica-Light" font-size="40.0" fill="#FEFFFE" transform="matrix(1.00, 0.00, -0.00, -1.00, 718.0, 426.0)">a</text><text xml:space="preserve" font-family="Helvetica-Light" font-size="40.0" fill="#FEFFFE" transform="matrix(1.00, 0.00, -0.00, -1.00, 740.3, 426.0)">n</text><text xml:space="preserve" font-family="Helvetica-Light" font-size="40.0" fill="#FEFFFE" transform="matrix(1.00, 0.00, -0.00, -1.00, 762.5, 426.0)">g</text><text xml:space="preserve" font-family="Helvetica-Light" font-size="40.0" fill="#FEFFFE" transform="matrix(1.00, 0.00, -0.00, -1.00, 787.0, 426.0)">e</text><text xml:space="preserve" font-family="Helvetica-Light" font-size="40.0" fill="#FEFFFE" transform="matrix(1.00, 0.00, -0.00, -1.00, 809.2, 426.0)"> </text><text xml:space="preserve" font-family="Helvetica-Light" font-size="40.0" fill="#FEFFFE" transform="matrix(1.00, 0.00, -0.00, -1.00, 820.3, 426.0)"> </text><text xml:space="preserve" font-family="Helvetica-Light" font-size="40.0" fill="#FEFFFE" transform="matrix(1.00, 0.00, -0.00, -1.00, 375.0, 354.0)">f</text><text xml:space="preserve" font-family="Helvetica-Light" font-size="40.0" fill="#FEFFFE" transform="matrix(1.00, 0.00, -0.00, -1.00, 386.1, 354.0)">r</text><text xml:space="preserve" font-family="Helvetica-Light" font-size="40.0" fill="#FEFFFE" transform="matrix(1.00, 0.00, -0.00, -1.00, 398.7, 354.0)">o</text><text xml:space="preserve" font-family="Helvetica-Light" font-size="40.0" fill="#FEFFFE" transform="matrix(1.00, 0.00, -0.00, -1.00, 421.0, 354.0)">m</text><text xml:space="preserve" font-family="Helvetica-Light" font-size="40.0" fill="#FEFFFE" transform="matrix(1.00, 0.00, -0.00, -1.00, 454.3, 354.0)"> </text><text xml:space="preserve" font-family="Helvetica-Light" font-size="40.0" fill="#FEFFFE" transform="matrix(1.00, 0.00, -0.00, -1.00, 465.4, 354.0)">t</text><text xml:space="preserve" font-family="Helvetica-Light" font-size="40.0" fill="#FEFFFE" transform="matrix(1.00, 0.00, -0.00, -1.00, 476.5, 354.0)">h</text><text xml:space="preserve" font-family="Helvetica-Light" font-size="40.0" fill="#FEFFFE" transform="matrix(1.00, 0.00, -0.00, -1.00, 498.8, 354.0)">e</text><text xml:space="preserve" font-family="Helvetica-Light" font-size="40.0" fill="#FEFFFE" transform="matrix(1.00, 0.00, -0.00, -1.00, 521.0, 354.0)"> </text><text xml:space="preserve" font-family="Helvetica-Light" font-size="40.0" fill="#FEFFFE" transform="matrix(1.00, 0.00, -0.00, -1.00, 532.1, 354.0)">i</text><text xml:space="preserve" font-family="Helvetica-Light" font-size="40.0" fill="#FEFFFE" transform="matrix(1.00, 0.00, -0.00, -1.00, 541.0, 354.0)">n</text><text xml:space="preserve" font-family="Helvetica-Light" font-size="40.0" fill="#FEFFFE" transform="matrix(1.00, 0.00, -0.00, -1.00, 563.2, 354.0)">s</text><text xml:space="preserve" font-family="Helvetica-Light" font-size="40.0" fill="#FEFFFE" transform="matrix(1.00, 0.00, -0.00, -1.00, 583.2, 354.0)">i</text><text xml:space="preserve" font-family="Helvetica-Light" font-size="40.0" fill="#FEFFFE" transform="matrix(1.00, 0.00, -0.00, -1.00, 592.1, 354.0)">d</text><text xml:space="preserve" font-family="Helvetica-Light" font-size="40.0" fill="#FEFFFE" transform="matrix(1.00, 0.00, -0.00, -1.00, 616.6, 354.0)">e</text><text xml:space="preserve" font-family="Helvetica-Light" font-size="40.0" fill="#FEFFFE" transform="matrix(1.00, 0.00, -0.00, -1.00, 638.8, 354.0)">.</text><text xml:space="preserve" font-family="Helvetica-Light" font-size="40.0" fill="#FEFFFE" transform="matrix(1.00, 0.00, -0.00, -1.00, 649.9, 354.0)"> </text><text xml:space="preserve" font-family="Helvetica-Light" font-size="40.0" fill="#FEFFFE" transform="matrix(1.00, 0.00, -0.00, -1.00, 342.0, 282.0)">A</text><text xml:space="preserve" font-family="Helvetica-Light" font-size="40.0" fill="#FEFFFE" transform="matrix(1.00, 0.00, -0.00, -1.00, 368.7, 282.0)"> </text><text xml:space="preserve" font-family="Helvetica-Light" font-size="40.0" fill="#FEFFFE" transform="matrix(1.00, 0.00, -0.00, -1.00, 379.8, 282.0)">c</text><text xml:space="preserve" font-family="Helvetica-Light" font-size="40.0" fill="#FEFFFE" transform="matrix(1.00, 0.00, -0.00, -1.00, 402.0, 282.0)">o</text><text xml:space="preserve" font-family="Helvetica-Light" font-size="40.0" fill="#FEFFFE" transform="matrix(1.00, 0.00, -0.00, -1.00, 424.3, 282.0)">v</text><text xml:space="preserve" font-family="Helvetica-Light" font-size="40.0" fill="#FEFFFE" transform="matrix(1.00, 0.00, -0.00, -1.00, 444.3, 282.0)">e</text><text xml:space="preserve" font-family="Helvetica-Light" font-size="40.0" fill="#FEFFFE" transform="matrix(1.00, 0.00, -0.00, -1.00, 466.5, 282.0)">r</text><text xml:space="preserve" font-family="Helvetica-Light" font-size="40.0" fill="#FEFFFE" transform="matrix(1.00, 0.00, -0.00, -1.00, 480.6, 282.0)">t</text><text xml:space="preserve" font-family="Helvetica-Light" font-size="40.0" fill="#FEFFFE" transform="matrix(1.00, 0.00, -0.00, -1.00, 491.7, 282.0)"> </text><text xml:space="preserve" font-family="Helvetica-Light" font-size="40.0" fill="#FEFFFE" transform="matrix(1.00, 0.00, -0.00, -1.00, 502.8, 282.0)">o</text><text xml:space="preserve" font-family="Helvetica-Light" font-size="40.0" fill="#FEFFFE" transform="matrix(1.00, 0.00, -0.00, -1.00, 525.0, 282.0)">p</text><text xml:space="preserve" font-family="Helvetica-Light" font-size="40.0" fill="#FEFFFE" transform="matrix(1.00, 0.00, -0.00, -1.00, 549.5, 282.0)">e</text><text xml:space="preserve" font-family="Helvetica-Light" font-size="40.0" fill="#FEFFFE" transform="matrix(1.00, 0.00, -0.00, -1.00, 571.7, 282.0)">r</text><text xml:space="preserve" font-family="Helvetica-Light" font-size="40.0" fill="#FEFFFE" transform="matrix(1.00, 0.00, -0.00, -1.00, 585.0, 282.0)">a</text><text xml:space="preserve" font-family="Helvetica-Light" font-size="40.0" fill="#FEFFFE" transform="matrix(1.00, 0.00, -0.00, -1.00, 607.3, 282.0)">t</text><text xml:space="preserve" font-family="Helvetica-Light" font-size="40.0" fill="#FEFFFE" transform="matrix(1.00, 0.00, -0.00, -1.00, 618.4, 282.0)">i</text><text xml:space="preserve" font-family="Helvetica-Light" font-size="40.0" fill="#FEFFFE" transform="matrix(1.00, 0.00, -0.00, -1.00, 627.3, 282.0)">o</text><text xml:space="preserve" font-family="Helvetica-Light" font-size="40.0" fill="#FEFFFE" transform="matrix(1.00, 0.00, -0.00, -1.00, 649.5, 282.0)">n</text><text xml:space="preserve" font-family="Helvetica-Light" font-size="40.0" fill="#FEFFFE" transform="matrix(1.00, 0.00, -0.00, -1.00, 671.8, 282.0)">.</text></g></svg>