<?xml version="1.0" encoding="UTF-8" standalone="no"?><svg xmlns="http://www.w3.org/2000/svg" xmlns:xlink="http://www.w3.org/1999/xlink" clip-rule="evenodd" stroke-miterlimit="4.00" viewBox="0 0 1024 768"><desc>SVG generated by Keynote</desc><defs></defs><g transform="matrix(1.00, 0.00, -0.00, -1.00, 0.0, 768.0)"><g><clipPath id="clip-765"><path d="M 0.0 768.0 L 1024.0 768.0 L 1024.0 0.0 L 0.0 0.0 Z M 0.0 768.0 "></path></clipPath><g clip-path="url(#clip-765)"><image xlink:href="../../30B7321D-9918-41AC-AA51-AB2EAA3DCF6E/assets/C58B69C55A3E82F4B831EE06AE03AE34.jpeg" width="1024.00" height="768.00" transform="matrix(1.00, 0.00, -0.00, -1.00, 0.0, 768.0)"></image></g></g><text xml:space="preserve" font-family="Helvetica-Bold" font-weight="bold" font-size="46.0" fill="#FEFFFF" transform="matrix(1.00, 0.00, -0.00, -1.00, 380.0, 680.0)">R</text><text xml:space="preserve" font-family="Helvetica-Bold" font-weight="bold" font-size="46.0" fill="#FEFFFF" transform="matrix(1.00, 0.00, -0.00, -1.00, 413.2, 680.0)">E</text><text xml:space="preserve" font-family="Helvetica-Bold" font-weight="bold" font-size="46.0" fill="#FEFFFF" transform="matrix(1.00, 0.00, -0.00, -1.00, 443.9, 680.0)">S</text><text xml:space="preserve" font-family="Helvetica-Bold" font-weight="bold" font-size="46.0" fill="#FEFFFF" transform="matrix(1.00, 0.00, -0.00, -1.00, 474.6, 680.0)">T</text><text xml:space="preserve" font-family="Helvetica-Bold" font-weight="bold" font-size="46.0" fill="#FEFFFF" transform="matrix(1.00, 0.00, -0.00, -1.00, 502.7, 680.0)"> </text><text xml:space="preserve" font-family="Helvetica-Bold" font-weight="bold" font-size="46.0" fill="#FEFFFF" transform="matrix(1.00, 0.00, -0.00, -1.00, 515.5, 680.0)">C</text><text xml:space="preserve" font-family="Helvetica-Bold" font-weight="bold" font-size="46.0" fill="#FEFFFF" transform="matrix(1.00, 0.00, -0.00, -1.00, 548.7, 680.0)">l</text><text xml:space="preserve" font-family="Helvetica-Bold" font-weight="bold" font-size="46.0" fill="#FEFFFF" transform="matrix(1.00, 0.00, -0.00, -1.00, 561.5, 680.0)">i</text><text xml:space="preserve" font-family="Helvetica-Bold" font-weight="bold" font-size="46.0" fill="#FEFFFF" transform="matrix(1.00, 0.00, -0.00, -1.00, 574.2, 680.0)">e</text><text xml:space="preserve" font-family="Helvetica-Bold" font-weight="bold" font-size="46.0" fill="#FEFFFF" transform="matrix(1.00, 0.00, -0.00, -1.00, 599.8, 680.0)">n</text><text xml:space="preserve" font-family="Helvetica-Bold" font-weight="bold" font-size="46.0" fill="#FEFFFF" transform="matrix(1.00, 0.00, -0.00, -1.00, 627.9, 680.0)">t</text><image xlink:href="../../F2104B3D-A84F-4AAF-A20B-3EB256CC91E9/assets/5ECE82D832C66CAA873CFA0FA7A8AFCE.png" width="696.00" height="276.00" transform="matrix(1.00, 0.00, -0.00, -1.00, 164.0, 522.0)"></image></g></svg>