<?xml version="1.0" encoding="UTF-8" standalone="no"?><svg xmlns="http://www.w3.org/2000/svg" xmlns:xlink="http://www.w3.org/1999/xlink" clip-rule="evenodd" stroke-miterlimit="4.00" viewBox="0 0 1024 768"><desc>SVG generated by Keynote</desc><defs></defs><g transform="matrix(1.00, 0.00, -0.00, -1.00, 0.0, 768.0)"><g><clipPath id="clip-129"><path d="M 0.0 768.0 L 1024.0 768.0 L 1024.0 0.0 L 0.0 0.0 Z M 0.0 768.0 "></path></clipPath><g clip-path="url(#clip-129)"><image xlink:href="../../30B7321D-9918-41AC-AA51-AB2EAA3DCF6E/assets/C58B69C55A3E82F4B831EE06AE03AE34.jpeg" width="1024.00" height="768.00" transform="matrix(1.00, 0.00, -0.00, -1.00, 0.0, 768.0)"></image></g></g><text xml:space="preserve" font-family="Helvetica-Bold" font-weight="bold" font-size="46.0" fill="#FEFFFF" transform="matrix(1.00, 0.00, -0.00, -1.00, 398.0, 367.0)">E</text><text xml:space="preserve" font-family="Helvetica-Bold" font-weight="bold" font-size="46.0" fill="#FEFFFF" transform="matrix(1.00, 0.00, -0.00, -1.00, 428.7, 367.0)">x</text><text xml:space="preserve" font-family="Helvetica-Bold" font-weight="bold" font-size="46.0" fill="#FEFFFF" transform="matrix(1.00, 0.00, -0.00, -1.00, 454.3, 367.0)">a</text><text xml:space="preserve" font-family="Helvetica-Bold" font-weight="bold" font-size="46.0" fill="#FEFFFF" transform="matrix(1.00, 0.00, -0.00, -1.00, 479.9, 367.0)">m</text><text xml:space="preserve" font-family="Helvetica-Bold" font-weight="bold" font-size="46.0" fill="#FEFFFF" transform="matrix(1.00, 0.00, -0.00, -1.00, 520.8, 367.0)">p</text><text xml:space="preserve" font-family="Helvetica-Bold" font-weight="bold" font-size="46.0" fill="#FEFFFF" transform="matrix(1.00, 0.00, -0.00, -1.00, 548.9, 367.0)">l</text><text xml:space="preserve" font-family="Helvetica-Bold" font-weight="bold" font-size="46.0" fill="#FEFFFF" transform="matrix(1.00, 0.00, -0.00, -1.00, 561.6, 367.0)">e</text><text xml:space="preserve" font-family="Helvetica-Bold" font-weight="bold" font-size="46.0" fill="#FEFFFF" transform="matrix(1.00, 0.00, -0.00, -1.00, 587.2, 367.0)">s</text><text xml:space="preserve" font-family="Monaco" font-size="18.0" fill="#FEFFFF" transform="matrix(1.00, 0.00, -0.00, -1.00, 170.0, 226.0)">s</text><text xml:space="preserve" font-family="Monaco" font-size="18.0" fill="#FEFFFF" transform="matrix(1.00, 0.00, -0.00, -1.00, 180.8, 226.0)">o</text><text xml:space="preserve" font-family="Monaco" font-size="18.0" fill="#FEFFFF" transform="matrix(1.00, 0.00, -0.00, -1.00, 191.6, 226.0)">u</text><text xml:space="preserve" font-family="Monaco" font-size="18.0" fill="#FEFFFF" transform="matrix(1.00, 0.00, -0.00, -1.00, 202.4, 226.0)">r</text><text xml:space="preserve" font-family="Monaco" font-size="18.0" fill="#FEFFFF" transform="matrix(1.00, 0.00, -0.00, -1.00, 213.2, 226.0)">c</text><text xml:space="preserve" font-family="Monaco" font-size="18.0" fill="#FEFFFF" transform="matrix(1.00, 0.00, -0.00, -1.00, 224.0, 226.0)">e</text><text xml:space="preserve" font-family="Monaco" font-size="18.0" fill="#FEFFFF" transform="matrix(1.00, 0.00, -0.00, -1.00, 234.8, 226.0)">:</text><text xml:space="preserve" font-family="Monaco" font-size="18.0" fill="#FEFFFF" transform="matrix(1.00, 0.00, -0.00, -1.00, 245.6, 226.0)"> </text><text xml:space="preserve" font-family="Monaco" font-size="18.0" fill="#FEFFFF" transform="matrix(1.00, 0.00, -0.00, -1.00, 256.4, 226.0)">h</text><text xml:space="preserve" font-family="Monaco" font-size="18.0" fill="#FEFFFF" transform="matrix(1.00, 0.00, -0.00, -1.00, 267.2, 226.0)">t</text><text xml:space="preserve" font-family="Monaco" font-size="18.0" fill="#FEFFFF" transform="matrix(1.00, 0.00, -0.00, -1.00, 278.0, 226.0)">t</text><text xml:space="preserve" font-family="Monaco" font-size="18.0" fill="#FEFFFF" transform="matrix(1.00, 0.00, -0.00, -1.00, 288.8, 226.0)">p</text><text xml:space="preserve" font-family="Monaco" font-size="18.0" fill="#FEFFFF" transform="matrix(1.00, 0.00, -0.00, -1.00, 299.6, 226.0)">:</text><text xml:space="preserve" font-family="Monaco" font-size="18.0" fill="#FEFFFF" transform="matrix(1.00, 0.00, -0.00, -1.00, 310.4, 226.0)">/</text><text xml:space="preserve" font-family="Monaco" font-size="18.0" fill="#FEFFFF" transform="matrix(1.00, 0.00, -0.00, -1.00, 321.2, 226.0)">/</text><text xml:space="preserve" font-family="Monaco" font-size="18.0" fill="#FEFFFF" transform="matrix(1.00, 0.00, -0.00, -1.00, 332.1, 226.0)">g</text><text xml:space="preserve" font-family="Monaco" font-size="18.0" fill="#FEFFFF" transform="matrix(1.00, 0.00, -0.00, -1.00, 342.9, 226.0)">i</text><text xml:space="preserve" font-family="Monaco" font-size="18.0" fill="#FEFFFF" transform="matrix(1.00, 0.00, -0.00, -1.00, 353.7, 226.0)">t</text><text xml:space="preserve" font-family="Monaco" font-size="18.0" fill="#FEFFFF" transform="matrix(1.00, 0.00, -0.00, -1.00, 364.5, 226.0)">h</text><text xml:space="preserve" font-family="Monaco" font-size="18.0" fill="#FEFFFF" transform="matrix(1.00, 0.00, -0.00, -1.00, 375.3, 226.0)">u</text><text xml:space="preserve" font-family="Monaco" font-size="18.0" fill="#FEFFFF" transform="matrix(1.00, 0.00, -0.00, -1.00, 386.1, 226.0)">b</text><text xml:space="preserve" font-family="Monaco" font-size="18.0" fill="#FEFFFF" transform="matrix(1.00, 0.00, -0.00, -1.00, 396.9, 226.0)">.</text><text xml:space="preserve" font-family="Monaco" font-size="18.0" fill="#FEFFFF" transform="matrix(1.00, 0.00, -0.00, -1.00, 407.7, 226.0)">c</text><text xml:space="preserve" font-family="Monaco" font-size="18.0" fill="#FEFFFF" transform="matrix(1.00, 0.00, -0.00, -1.00, 418.5, 226.0)">o</text><text xml:space="preserve" font-family="Monaco" font-size="18.0" fill="#FEFFFF" transform="matrix(1.00, 0.00, -0.00, -1.00, 429.3, 226.0)">m</text><text xml:space="preserve" font-family="Monaco" font-size="18.0" fill="#FEFFFF" transform="matrix(1.00, 0.00, -0.00, -1.00, 440.1, 226.0)">/</text><text xml:space="preserve" font-family="Monaco" font-size="18.0" fill="#FEFFFF" transform="matrix(1.00, 0.00, -0.00, -1.00, 450.9, 226.0)">c</text><text xml:space="preserve" font-family="Monaco" font-size="18.0" fill="#FEFFFF" transform="matrix(1.00, 0.00, -0.00, -1.00, 461.7, 226.0)">o</text><text xml:space="preserve" font-family="Monaco" font-size="18.0" fill="#FEFFFF" transform="matrix(1.00, 0.00, -0.00, -1.00, 472.5, 226.0)">d</text><text xml:space="preserve" font-family="Monaco" font-size="18.0" fill="#FEFFFF" transform="matrix(1.00, 0.00, -0.00, -1.00, 483.3, 226.0)">e</text><text xml:space="preserve" font-family="Monaco" font-size="18.0" fill="#FEFFFF" transform="matrix(1.00, 0.00, -0.00, -1.00, 494.1, 226.0)">t</text><text xml:space="preserve" font-family="Monaco" font-size="18.0" fill="#FEFFFF" transform="matrix(1.00, 0.00, -0.00, -1.00, 504.9, 226.0)">o</text><text xml:space="preserve" font-family="Monaco" font-size="18.0" fill="#FEFFFF" transform="matrix(1.00, 0.00, -0.00, -1.00, 515.7, 226.0)">j</text><text xml:space="preserve" font-family="Monaco" font-size="18.0" fill="#FEFFFF" transform="matrix(1.00, 0.00, -0.00, -1.00, 526.5, 226.0)">o</text><text xml:space="preserve" font-family="Monaco" font-size="18.0" fill="#FEFFFF" transform="matrix(1.00, 0.00, -0.00, -1.00, 537.3, 226.0)">y</text><text xml:space="preserve" font-family="Monaco" font-size="18.0" fill="#FEFFFF" transform="matrix(1.00, 0.00, -0.00, -1.00, 548.1, 226.0)">/</text><text xml:space="preserve" font-family="Monaco" font-size="18.0" fill="#FEFFFF" transform="matrix(1.00, 0.00, -0.00, -1.00, 558.9, 226.0)">t</text><text xml:space="preserve" font-family="Monaco" font-size="18.0" fill="#FEFFFF" transform="matrix(1.00, 0.00, -0.00, -1.00, 569.7, 226.0)">a</text><text xml:space="preserve" font-family="Monaco" font-size="18.0" fill="#FEFFFF" transform="matrix(1.00, 0.00, -0.00, -1.00, 580.5, 226.0)">l</text><text xml:space="preserve" font-family="Monaco" font-size="18.0" fill="#FEFFFF" transform="matrix(1.00, 0.00, -0.00, -1.00, 591.3, 226.0)">k</text><text xml:space="preserve" font-family="Monaco" font-size="18.0" fill="#FEFFFF" transform="matrix(1.00, 0.00, -0.00, -1.00, 602.1, 226.0)">_</text><text xml:space="preserve" font-family="Monaco" font-size="18.0" fill="#FEFFFF" transform="matrix(1.00, 0.00, -0.00, -1.00, 612.9, 226.0)">m</text><text xml:space="preserve" font-family="Monaco" font-size="18.0" fill="#FEFFFF" transform="matrix(1.00, 0.00, -0.00, -1.00, 623.7, 226.0)">a</text><text xml:space="preserve" font-family="Monaco" font-size="18.0" fill="#FEFFFF" transform="matrix(1.00, 0.00, -0.00, -1.00, 634.6, 226.0)">r</text><text xml:space="preserve" font-family="Monaco" font-size="18.0" fill="#FEFFFF" transform="matrix(1.00, 0.00, -0.00, -1.00, 645.4, 226.0)">i</text><text xml:space="preserve" font-family="Monaco" font-size="18.0" fill="#FEFFFF" transform="matrix(1.00, 0.00, -0.00, -1.00, 656.2, 226.0)">t</text><text xml:space="preserve" font-family="Monaco" font-size="18.0" fill="#FEFFFF" transform="matrix(1.00, 0.00, -0.00, -1.00, 667.0, 226.0)">i</text><text xml:space="preserve" font-family="Monaco" font-size="18.0" fill="#FEFFFF" transform="matrix(1.00, 0.00, -0.00, -1.00, 677.8, 226.0)">m</text><text xml:space="preserve" font-family="Monaco" font-size="18.0" fill="#FEFFFF" transform="matrix(1.00, 0.00, -0.00, -1.00, 688.6, 226.0)">e</text><text xml:space="preserve" font-family="Monaco" font-size="18.0" fill="#FEFFFF" transform="matrix(1.00, 0.00, -0.00, -1.00, 699.4, 226.0)">d</text><text xml:space="preserve" font-family="Monaco" font-size="18.0" fill="#FEFFFF" transform="matrix(1.00, 0.00, -0.00, -1.00, 710.2, 226.0)">e</text><text xml:space="preserve" font-family="Monaco" font-size="18.0" fill="#FEFFFF" transform="matrix(1.00, 0.00, -0.00, -1.00, 721.0, 226.0)">v</text><text xml:space="preserve" font-family="Monaco" font-size="18.0" fill="#FEFFFF" transform="matrix(1.00, 0.00, -0.00, -1.00, 731.8, 226.0)">c</text><text xml:space="preserve" font-family="Monaco" font-size="18.0" fill="#FEFFFF" transform="matrix(1.00, 0.00, -0.00, -1.00, 742.6, 226.0)">o</text><text xml:space="preserve" font-family="Monaco" font-size="18.0" fill="#FEFFFF" transform="matrix(1.00, 0.00, -0.00, -1.00, 753.4, 226.0)">n</text><text xml:space="preserve" font-family="Monaco" font-size="18.0" fill="#FEFFFF" transform="matrix(1.00, 0.00, -0.00, -1.00, 764.2, 226.0)">_</text><text xml:space="preserve" font-family="Monaco" font-size="18.0" fill="#FEFFFF" transform="matrix(1.00, 0.00, -0.00, -1.00, 775.0, 226.0)">g</text><text xml:space="preserve" font-family="Monaco" font-size="18.0" fill="#FEFFFF" transform="matrix(1.00, 0.00, -0.00, -1.00, 785.8, 226.0)">r</text><text xml:space="preserve" font-family="Monaco" font-size="18.0" fill="#FEFFFF" transform="matrix(1.00, 0.00, -0.00, -1.00, 796.6, 226.0)">o</text><text xml:space="preserve" font-family="Monaco" font-size="18.0" fill="#FEFFFF" transform="matrix(1.00, 0.00, -0.00, -1.00, 807.4, 226.0)">o</text><text xml:space="preserve" font-family="Monaco" font-size="18.0" fill="#FEFFFF" transform="matrix(1.00, 0.00, -0.00, -1.00, 818.2, 226.0)">v</text><text xml:space="preserve" font-family="Monaco" font-size="18.0" fill="#FEFFFF" transform="matrix(1.00, 0.00, -0.00, -1.00, 829.0, 226.0)">y</text><g><clipPath id="clip-130"><path d="M 169.1 222.2 L 839.9 222.2 L 839.9 225.5 L 169.1 225.5 Z M 169.1 222.2 "></path></clipPath><g clip-path="url(#clip-130)"><path d="M 4.5 24.9 L 674.2 24.9 " fill="none" stroke="#FEFFFF" stroke-width="1.36" stroke-miterlimit="0.00" transform="matrix(1.00, 0.00, 0.00, -1.00, 165.6, 248.7)"></path></g></g></g></svg>